<svg xmlns="http://www.w3.org/2000/svg" viewBox="0 0 500 500">
    <g id="freepik--background-complete--inject-6">
        <path d="M328.543,279.737c-.833-4.021-2.427-7.759-4.606-11.079l3.967-4.791-8.481-8.481-4.792,3.966c-3.32-2.178-7.058-3.772-11.078-4.605l-.582-6.176h-11.994l-.582,6.176c-4.02,.834-7.759,2.427-11.078,4.605l-4.792-3.966-8.481,8.481,3.967,4.792c-2.179,3.32-3.772,7.058-4.606,11.078l-6.176,.582v11.993l6.176,.582c.834,4.02,2.427,7.758,4.606,11.078l-3.967,4.792,8.481,8.481,4.792-3.968c3.319,2.18,7.058,3.772,11.078,4.606l.582,6.176h11.994l.582-6.176c4.02-.833,7.758-2.427,11.078-4.606l4.792,3.968,8.481-8.481-3.967-4.791c2.179-3.321,3.772-7.058,4.606-11.078l6.176-.582v-11.993l-6.176-.582Zm-15.332,6.579c0,8.967-7.269,16.237-16.237,16.237s-16.237-7.27-16.237-16.237,7.269-16.237,16.237-16.237,16.237,7.27,16.237,16.237Z"
              style="fill:#f0f0f0;"></path>
        <path d="M357.084,102.519c-1.102-5.316-3.208-10.258-6.089-14.648l5.245-6.335-11.213-11.214-6.336,5.244c-4.39-2.88-9.332-4.987-14.647-6.089l-.769-8.166h-15.858l-.769,8.166c-5.315,1.102-10.258,3.209-14.647,6.089l-6.335-5.244-11.214,11.214,5.245,6.336c-2.881,4.389-4.987,9.331-6.09,14.647l-8.166,.77v15.857l8.166,.77c1.103,5.315,3.209,10.257,6.09,14.647l-5.245,6.335,11.214,11.214,6.335-5.246c4.389,2.882,9.332,4.988,14.647,6.09l.769,8.166h15.858l.769-8.165c5.315-1.102,10.258-3.209,14.647-6.091l6.336,5.246,11.213-11.214-5.245-6.335c2.881-4.39,4.988-9.332,6.089-14.647l8.165-.77v-15.857l-8.165-.77Zm-20.271,8.698c0,11.856-9.611,21.468-21.468,21.468s-21.468-9.612-21.468-21.468,9.611-21.468,21.468-21.468,21.468,9.611,21.468,21.468Z"
              style="fill:#f0f0f0;"></path>
        <path d="M162.219,81.227c-.612-2.951-1.781-5.694-3.38-8.131l2.911-3.516-6.224-6.225-3.517,2.911c-2.437-1.598-5.18-2.768-8.13-3.38l-.427-4.533h-8.803l-.427,4.533c-2.95,.612-5.694,1.781-8.13,3.38l-3.517-2.911-6.224,6.225,2.911,3.517c-1.599,2.436-2.768,5.18-3.38,8.13l-4.533,.427v8.802l4.533,.427c.612,2.95,1.781,5.693,3.38,8.13l-2.911,3.517,6.224,6.224,3.517-2.912c2.436,1.6,5.18,2.769,8.13,3.38l.427,4.533h8.803l.427-4.532c2.95-.612,5.694-1.781,8.13-3.381l3.517,2.912,6.224-6.224-2.911-3.516c1.599-2.437,2.768-5.18,3.38-8.131l4.532-.427v-8.802l-4.532-.427Zm-11.252,4.828c0,6.581-5.335,11.916-11.916,11.916s-11.916-5.335-11.916-11.916,5.335-11.917,11.916-11.917,11.916,5.335,11.916,11.917Z"
              style="fill:#f0f0f0;"></path>
        <path d="M145.761,320.746c-.28-1.352-.816-2.609-1.548-3.725l1.334-1.611-2.851-2.851-1.611,1.333c-1.116-.732-2.373-1.268-3.724-1.548l-.196-2.076h-4.032l-.196,2.076c-1.352,.28-2.608,.816-3.724,1.548l-1.611-1.333-2.851,2.851,1.334,1.611c-.732,1.116-1.268,2.373-1.548,3.725l-2.076,.196v4.032l2.076,.196c.28,1.352,.816,2.608,1.548,3.724l-1.334,1.611,2.851,2.851,1.611-1.334c1.116,.733,2.373,1.268,3.724,1.549l.196,2.076h4.032l.196-2.076c1.351-.28,2.608-.816,3.724-1.549l1.611,1.334,2.851-2.851-1.334-1.611c.733-1.116,1.268-2.373,1.548-3.724l2.076-.196v-4.032l-2.076-.196Zm-5.154,2.212c0,3.015-2.444,5.459-5.459,5.459s-5.459-2.444-5.459-5.459,2.444-5.459,5.459-5.459,5.459,2.444,5.459,5.459Z"
              style="fill:#f0f0f0;"></path>
        <path d="M60.942,161.801c-.28-1.352-.816-2.609-1.548-3.725l1.334-1.611-2.851-2.851-1.611,1.333c-1.116-.732-2.373-1.268-3.725-1.548l-.195-2.076h-4.032l-.196,2.076c-1.352,.28-2.608,.816-3.724,1.548l-1.611-1.333-2.851,2.851,1.334,1.611c-.733,1.116-1.268,2.373-1.548,3.725l-2.076,.196v4.032l2.076,.196c.28,1.352,.816,2.608,1.548,3.724l-1.334,1.611,2.851,2.851,1.611-1.334c1.116,.733,2.373,1.268,3.724,1.548l.196,2.076h4.032l.195-2.076c1.352-.28,2.608-.816,3.725-1.549l1.611,1.334,2.851-2.851-1.334-1.611c.733-1.116,1.268-2.373,1.548-3.725l2.076-.196v-4.032l-2.076-.196Zm-5.154,2.212c0,3.015-2.444,5.459-5.459,5.459s-5.459-2.444-5.459-5.459,2.444-5.459,5.459-5.459,5.459,2.444,5.459,5.459Z"
              style="fill:#f0f0f0;"></path>
        <path d="M444.96,102.989c-.437-2.107-1.271-4.065-2.413-5.805l2.079-2.511-4.444-4.444-2.511,2.078c-1.739-1.141-3.698-1.976-5.805-2.413l-.305-3.236h-6.284l-.305,3.236c-2.106,.437-4.065,1.272-5.804,2.413l-2.511-2.078-4.444,4.444,2.078,2.511c-1.142,1.739-1.976,3.698-2.413,5.805l-3.236,.305v6.284l3.236,.305c.437,2.106,1.272,4.065,2.413,5.804l-2.078,2.511,4.444,4.444,2.511-2.079c1.739,1.142,3.698,1.977,5.804,2.413l.305,3.236h6.284l.305-3.236c2.106-.437,4.065-1.272,5.805-2.414l2.511,2.079,4.444-4.444-2.079-2.51c1.142-1.74,1.977-3.698,2.413-5.805l3.236-.305v-6.284l-3.236-.305Zm-8.033,3.447c0,4.698-3.809,8.507-8.508,8.507s-8.507-3.809-8.507-8.507,3.809-8.508,8.507-8.508,8.508,3.809,8.508,8.508Z"
              style="fill:#f0f0f0;"></path>
        <path d="M396.215,72.059c-.28-1.351-.815-2.607-1.548-3.723l1.333-1.61-2.85-2.85-1.61,1.333c-1.116-.732-2.372-1.267-3.722-1.547l-.195-2.075h-4.03l-.196,2.075c-1.351,.28-2.607,.815-3.722,1.547l-1.61-1.333-2.85,2.85,1.333,1.61c-.732,1.115-1.267,2.372-1.548,3.722l-2.075,.196v4.03l2.075,.196c.28,1.351,.815,2.607,1.548,3.722l-1.333,1.61,2.85,2.85,1.61-1.333c1.115,.732,2.371,1.267,3.722,1.548l.196,2.075h4.03l.195-2.075c1.351-.28,2.607-.815,3.722-1.548l1.61,1.333,2.85-2.85-1.333-1.61c.732-1.116,1.268-2.372,1.548-3.722l2.075-.196v-4.03l-2.075-.196Zm-5.152,2.211c0,3.013-2.443,5.456-5.456,5.456s-5.456-2.443-5.456-5.456,2.443-5.456,5.456-5.456,5.456,2.443,5.456,5.456Z"
              style="fill:#f0f0f0;"></path>
        <g>
            <g>
                <g>
                    <path d="M443.92,330.198h-180.746c-3.232,0-5.862-2.63-5.862-5.862V61.062c0-3.232,2.63-5.862,5.862-5.862h180.746c3.232,0,5.862,2.629,5.862,5.862V324.335c0,3.233-2.63,5.862-5.862,5.862ZM263.174,55.45c-3.095,0-5.612,2.518-5.612,5.612V324.335c0,3.095,2.518,5.612,5.612,5.612h180.746c3.095,0,5.612-2.517,5.612-5.612V61.062c0-3.094-2.518-5.612-5.612-5.612h-180.746Z"
                          style="fill:#e0e0e0;"></path>
                    <path d="M235.493,330.198H54.746c-3.232,0-5.862-2.63-5.862-5.862V61.062c0-3.232,2.629-5.862,5.862-5.862H235.493c3.232,0,5.862,2.629,5.862,5.862V324.335c0,3.233-2.63,5.862-5.862,5.862ZM54.746,55.45c-3.094,0-5.612,2.518-5.612,5.612V324.335c0,3.095,2.518,5.612,5.612,5.612H235.493c3.095,0,5.612-2.517,5.612-5.612V61.062c0-3.094-2.518-5.612-5.612-5.612H54.746Z"
                          style="fill:#e0e0e0;"></path>
                </g>
                <rect x="0" y="391.267" width="500" height=".25" style="fill:#e0e0e0;"></rect>
            </g>
            <g>
                <rect x="51.672" y="405.531" width="16.06" height=".25" style="fill:#e0e0e0;"></rect>
                <rect x="170.352" y="402.821" width="53.53" height=".25" style="fill:#e0e0e0;"></rect>
                <rect x="68.732" y="414.821" width="36.25" height=".25" style="fill:#e0e0e0;"></rect>
                <rect x="378.352" y="402.691" width="43.19" height=".25" style="fill:#e0e0e0;"></rect>
                <rect x="430.452" y="402.691" width="6.33" height=".25" style="fill:#e0e0e0;"></rect>
                <rect x="316.212" y="408.921" width="53.89" height=".25" style="fill:#e0e0e0;"></rect>
            </g>
        </g>
        <g id="freepik--freepik--Plant--inject-111--inject-6">
            <path d="M283.855,426.932c.836-10.534,6.619-21.193,15.919-28.429,2.323-1.801,7.202-5.372,3.246-7.258-4.519-2.158-13.188,7.918-14.403,9.781,2.566-8.027,10.341-13.842,18.777-17.172,4.169-1.646,8.144-3.206,3.703-5.652s-14.053,3.486-16.279,6.032c5.268-5.877,11.925-11.761,18.747-15.278,7.532-3.882,4.13-10.356-3.635-5.349-4.811,3.105-12.722,10.868-12.722,10.868,0,0,12.43-19.943,8.679-21.737-4.859-2.329-13.373,24.842-15.725,30.199,.632-4.441,1.224-15.185-2.916-15.651-3.781-.419-2.857,26.333-3.732,31.053-.554,2.057-.807,3.105-1.244,5.178-.408-3.563-2.916-12.957-6.667-11.87-3.188,.916-1.215,7.949-.389,11.288,2.002,8.081,4.024,15.899,4.043,24.19l4.597-.194Z"
                  style="fill:#f0f0f0;"></path>
            <path d="M276.963,431.519c-.855-13.761-6.897-27.684-16.607-37.128-2.419-2.35-7.504-7.017-3.419-9.479,4.709-2.812,13.761,10.342,15.017,12.769-2.667-10.479-10.786-18.068-19.581-22.419-4.35-2.154-8.496-4.179-3.863-7.376,4.632-3.197,14.667,4.556,16.974,7.872-5.496-7.692-12.436-15.385-19.547-19.949-7.855-5.06-4.273-13.521,3.786-6.983,5.068,4.051,13.308,14.162,13.308,14.162,0,0-12.957-26.034-9.043-28.427,5.026-3.077,13.94,32.479,16.393,39.427-.65-5.795-1.265-19.829,3.094-20.436,3.94-.547,2.974,34.376,3.889,40.547,.581,2.692,.855,4.043,1.291,6.761,.436-4.65,3.026-16.915,6.966-15.496,3.316,1.197,1.265,10.376,.402,14.735-2.094,10.547-4.205,20.761-4.214,31.581l-4.846-.162Z"
                  style="fill:#e6e6e6;"></path>
            <polygon points="261.955 424.641 266.395 449.005 292.669 449.005 297.376 424.641 261.955 424.641"
                     style="fill:#e0e0e0;"></polygon>
            <rect x="258.782" y="417.614" width="42.247" height="8.13" style="fill:#e0e0e0;"></rect>
        </g>
    </g>
    <g id="freepik--background-simple--inject-6">
        <g>
            <path d="M234.662,66.069c-19.773-.701-40.14,3.544-59.822,13.441-23.198,11.665-49.254,32.499-52.525,67.884-6.038,65.327,43.927,79.737,22.785,119.152-23.948,44.646-31.08,102.549,15.829,131.559,89.096,55.101,251.825-86.705,243.987-190.302-4.88-64.496-65.261-138.012-170.254-141.734Z"
                  style="fill:#407BFF;"></path>
            <path d="M234.662,66.069c-19.773-.701-40.14,3.544-59.822,13.441-23.198,11.665-49.254,32.499-52.525,67.884-6.038,65.327,43.927,79.737,22.785,119.152-23.948,44.646-31.08,102.549,15.829,131.559,89.096,55.101,251.825-86.705,243.987-190.302-4.88-64.496-65.261-138.012-170.254-141.734Z"
                  style="fill:#fff; opacity:.9;"></path>
        </g>
    </g>
    <g id="freepik--Shadow--inject-6">
        <path d="M458.875,454.435c0,3.387-93.517,6.132-208.875,6.132s-208.875-2.746-208.875-6.132,93.516-6.132,208.875-6.132,208.875,2.746,208.875,6.132Z"
              style="fill:#ebebeb;"></path>
    </g>
    <g id="freepik--Tab_4--inject-6">
        <path d="M98.82,105.676v184.661c0,5.391,4.37,9.761,9.761,9.761H397.478c2.042,0,3.698-1.656,3.698-3.698V104.427c0-2.734-2.216-4.95-4.95-4.95H105.019c-3.424,0-6.199,2.775-6.199,6.199Z"
              style="fill:#407BFF;"></path>
        <path d="M98.82,105.676v184.661c0,5.391,4.37,9.761,10.933,9.722H398.651c.869,.039,2.525-1.616,2.525-3.658V104.427c0-2.734-2.216-4.95-4.95-4.95H105.019c-3.424,0-6.199,2.775-6.199,6.199Z"
              style="fill:#fff; opacity:.7;"></path>
        <path d="M103.679,99.477H397.3c2.141,0,3.88,1.739,3.88,3.88v12.223H98.82v-11.244c0-2.682,2.177-4.859,4.859-4.859Z"
              style="fill:#407BFF;"></path>
        <path d="M397.154,107.529c0,1.89-1.532,3.422-3.422,3.422s-3.421-1.532-3.421-3.422,1.532-3.422,3.421-3.422,3.422,1.532,3.422,3.422Zm-13.146-3.422c-1.89,0-3.422,1.532-3.422,3.422s1.532,3.422,3.422,3.422,3.421-1.532,3.421-3.422-1.532-3.422-3.421-3.422Zm-9.725,0c-1.89,0-3.422,1.532-3.422,3.422s1.532,3.422,3.422,3.422,3.422-1.532,3.422-3.422-1.532-3.422-3.422-3.422Z"
              style="fill:#fff; opacity:.3;"></path>
        <path d="M179.129,92.805h-26.852c-.276,0-.5-.224-.5-.5s.224-.5,.5-.5h26.852c.276,0,.5,.224,.5,.5s-.224,.5-.5,.5Zm13.488-.5c0-.276-.224-.5-.5-.5h-5.592c-.276,0-.5,.224-.5,.5s.224,.5,.5,.5h5.592c.276,0,.5-.224,.5-.5Z"
              style="fill:#407BFF;"></path>
        <path d="M364.482,148.481H135.518c-5.392,0-9.763-4.371-9.763-9.763h0c0-5.392,4.371-9.763,9.763-9.763h228.964c5.392,0,9.763,4.371,9.763,9.763h0c0,5.392-4.371,9.763-9.763,9.763Z"
              style="fill:#fff;"></path>
        <path d="M365.864,143.154l-2.695-2.113c.033-.045,.07-.085,.102-.131,.55-.801,.84-1.74,.84-2.715,0-2.651-2.156-4.808-4.808-4.808s-4.809,2.157-4.809,4.808,2.157,4.808,4.809,4.808c1.191,0,2.325-.442,3.196-1.217l2.748,2.155c.092,.072,.2,.106,.309,.106,.148,0,.295-.066,.394-.191,.17-.217,.132-.532-.085-.702Zm-6.561-1.151c-2.1,0-3.809-1.708-3.809-3.808s1.709-3.808,3.809-3.808,3.808,1.708,3.808,3.808c0,.772-.229,1.516-.664,2.15-.712,1.038-1.888,1.658-3.144,1.658Z"
              style="fill:#407BFF;"></path>
        <path d="M354.042,277.164c-.141,.706-.589,1.492-1.178,1.982-.425,.356-1.777,1.074-1.932,.057-.043-.283,.263-1.598,.376-1.87,.334-.793,.689-.274,1.226-.17,.551,.107,1.069-.4,1.508,0Zm-3.204-80.363c-.15-.633-.281-1.303-.473-1.982-.085-.307-.266-.559-.282-.793-.031-.408,.149-.798,.095-1.189-.138-1.001-1.239-1.989-2.073-2.096-.559,.772,.313,1.464,.471,2.096,.25,1.001-.222,1.981-.659,2.265-.162,.104-.378,.058-.567,.226-.223,.197-.247,.978-.659,1.19-.479,.242-1.117,.003-1.745,.169-.337,.09-.863,.732-1.131,1.077-.218,.28-.907,.955-.894,1.359,.012,.389,.448,.653,.753,1.133,.252,.396,.481,1.041,.896,.962,.584-.11,.09-1.414,.565-1.755,.831,.342,1.162-1.004,1.839-1.02,.262-.006,.477,.37,.754,.283,.345-.109,.444-.824,.802-1.02,.762-.416,1.789-.128,2.309-.905Zm-4.007-7.477c.015,.516,.65,1.034,1.037,1.133,.146-.485-.112-.893,.329-1.018,.376-.107,.801,.425,1.18,.339,.238-.054,.466-.573,.659-.737,.199-.167,.412-.107,.518-.396-.039-.788-.601-.716-1.272-.85-1.039-.206-1.944-1.248-2.404-1.133-.002,.073-.061,.079-.047,.17,.203,.613,.564,.939,.425,1.586-.085,.38-.435,.581-.425,.905Zm1.273,56.917c.072,.305,.755,.359,.707-.111-.084-.367-.694-.253-.707,.111Zm-1.792-60.766c.796-.618-.334-1.29-.801-1.586-.183,.639,.319,1.371,.801,1.586Zm-2.261,58.446c.449-.329,1.159-.315,1.366-1.02-.945-.39-1.534,.385-2.073,.738-.374,.24-.899,.385-.896,1.017,.084,.051,.145,.127,.189,.227,.575-.065,.96-.629,1.414-.963Zm-.52-10.874c-.384-.262-.906-.055-1.459-.057-.506-.002-1.023-.269-1.369-.226-.449,.055-.88,.539-.896,1.018,.28,.119,.356-.121,.614-.168,1.21-.228,3.038,.849,3.109-.567Zm-1.225,6.739c.214-.193,.123-.758,.142-1.19-.446-.652-.599-1.658-.99-2.377,.247-.604,1.138-.691,1.084-1.475-.795-.178-1.464,.657-2.027,.511-.164-.042-.502-.692-.755-.678-.51,.026-.415,1.014-.565,1.528-.104,.356-.451,.726-.424,1.076,.035,.423,.477,.535,.565,1.078,.101,.618-.382,1.414,.095,1.585,.973,.346,.311-2.441,1.036-2.605,.38,.717,.89,2.766,1.839,2.547Zm-1.508,3.398c-.081-.482-1.059-.617-1.224-.17,.082,.393,1.051,.6,1.224,.17Zm-1.931,.907c.108,.438,.49,.542,.848,.68,.069-.068,.133-.143,.187-.228-.012-.532-.771-.918-1.035-.452Zm-1.745-1.247c-.354,.04-.801-.245-.942,.17,.1,.488,.594,.495,1.084,.509,.298-.429,1.127,.012,1.366-.396-.151-.825-.939-.345-1.508-.283Zm27.715,17.898c-.051-.313-.4-.741-.612-1.134-.22-.406-.531-.717-.66-1.133-.089-.283-.069-.579-.141-.737-.148-.318-.556-.356-.707-.735-.045-.113-.004-.395-.048-.568-.091-.365-.244-.552-.236-1.017-.467-.748-1.188-.725-1.556-1.418-.291-.549-.093-1.171-.187-1.926-.051-.408-.346-.826-.378-1.303-.019-.282,.126-.631,.094-.904-.091-.791-.754-.676-1.13-1.019,.093-1.177-.099-2.57-.662-3.287-.56,.275-.807,1.321-.989,2.096-.067,.284-.236,.563-.283,.849-.139,.856-.157,1.846-.47,2.661-.268,.698-.746,1.432-1.224,1.418-.421-.015-.638-.555-.944-.794-.097-.074-.326-.123-.471-.226-.17-.123-.436-.493-.755-.735-.464-.355-1.239-.658-1.224-1.304,.011-.515,.417-.611,.801-.792,.14-.279-.016-.419,.047-.68,.089-.369,.463-.659,.424-1.019-.089-.814-.92-.21-1.367-.228-.831-.03-1.759-.921-2.309-.962-.223,.223,.059,.436,0,.793-.262,.504-.796,.143-1.272,.283-.591,.173-.838,.951-1.178,1.529-.234,.395-.497,1.054-.755,1.132-.723,.221-1.032-.894-1.697-.963-.178-.02-.551,.106-.753,.228-.343,.2-.827,.593-1.085,.848-.372,.37-.425,.949-.753,1.303-.162,.174-.631,.441-.849,.51-.211,.065-.409-.047-.613,.056-.413,.212-.35,.736-.566,1.359-.177,.513-.846,1.371-1.319,1.699-.43,.3-.936,.242-1.508,.398-.591,.159-1.128,.589-1.555,.679-.132,.027-.382-.036-.565,0-.726,.142-1.306,.934-2.029,1.36-.204,.119-.726,.323-.849,.565-.096,.192-.1,.694-.187,.962-.19,.581-.478,.799-.472,1.246,.008,.633,.337,.718,.189,1.246-.091,.322-.454,.362-.52,.736-.034,.207,.11,.499,.141,.849,.024,.242-.023,.49,0,.681,.067,.53,.328,.971,.331,1.471,.003,.368-.172,.764-.189,1.134-.022,.475,.199,.925,.189,1.301-.014,.477-.332,1.255-.518,1.586-.175,.309-.711,.587-.707,1.02,.003,.548,.544,.703,.849,1.018,1.538,.276,2.11-.724,3.109-1.074,1.007-.355,1.995,.002,2.97-.114,.59-.595,1.646-1.499,2.593-1.698,.277-.06,.599,.033,.894,0,1.151-.133,2.079-1.069,3.536-.795,.332,.063,1.329,.513,1.602,.738,.24,.196,.761,1.367,.802,1.642,.055,.36-.231,.805,.142,.962,.397,.086,.645-.487,.988-.735,.309-.227,.67-.315,.944-.455-.126,.189-.201,.44-.189,.792,.344,.252,.328,.744,.236,1.134,.146,.365,.499,.474,.519,.906,.021,.433-.288,.651-.235,1.134,.094,.886,.834,.876,1.508,1.132,.321,.123,.434,.282,.659,.283,.552,.005,.848-.398,1.225-.339,.337,.053,.674,.581,1.038,.567,.346-.016,.809-.63,1.507-.963,.446-.213,.882-.163,1.367-.227,.83-.109,1.07-1.196,1.554-1.87,.335-.464,.849-.875,1.274-1.414,.404-.513,.774-1.087,1.225-1.529,.292-.286,.645-.452,.943-.738,.504-.483,.975-1.277,1.32-1.982,.421-.857,.96-1.528,1.179-2.208,.187-.579,.086-1.306,.187-1.869,.084-.464,.425-.851,.331-1.415Zm-30.968-17.785c.529,.093,1.142,.47,1.555-.056-.287-.672-1.191-.608-1.742-.961-.004-.29,.093-.442-.049-.625-.65,.093-1.194-.42-1.742-.394-.258,.01-.45,.239-.707,.281-1.087,.182-1.653-.716-2.5-.849-.655-.101-1.389,.046-1.366,.568,.022,.506,1.603,1.223,2.027,1.302,.359,.066,.75-.057,1.132,0,.628,.093,1.225,.53,1.884,.622,.52,.071,1.03,.031,1.508,.113Zm4.008-15.347c-.052-.463-.713-1.598-1.132-1.02-.493,.683-.513,1.473-1.131,2.039-.237,.216-.508,.221-.801,.454-.26,.204-.415,.679-.612,.962-.214,.304-.445,.656-.753,.793-.3,.132-.686,.063-.896,.226-.38,.293-.3,1-.754,1.134-.229,.067-.567-.236-.895-.17-.815,.16-.683,1.889-.376,2.662,.21,.533,.602,.742,.705,1.132,.104,.386,.056,1.064,.379,1.303,.156,.116,.49,.05,.846,.17,.297,.098,.459,.321,.66,.339,.256,.022,.551-.173,.801-.17,.656,.01,1.05,.691,1.463,.737,.38,.044,.722-.302,1.035-.281,.453-.496,.224-1.366,.424-2.04,.165-.561,.698-.672,.896-1.134,.057-.636-.097-.664,.046-1.076,.156-.445,.865-.426,.896-.849,.015-.216-.383-.573-.518-.905-.126-.307-.256-.734-.283-.964-.166-1.409,.618-1.495,.895-2.491-.2-.401-.661-.489-.895-.849Zm-8.472,8.425c-1.2,0-1.2,2.236,0,2.236s1.199-2.236,0-2.236Zm-1.758,1.77c.145-.528,.644-.507,.66-.906,.008-.238-.513-1.109-.66-1.134-.359-.056-.375,.509-.707,.397-.333-.063-.381-.535-.613-.85-.187-.253-.5-.382-.566-.68-.035-.166,.08-.523,.048-.734-.133-.851-1.105-1.284-1.65-1.7-.4-.306-.825-.455-1.131-.681-.223-.165-.428-.568-.708-.85-.26-.263-.593-.433-.847-.679-.455-.439-.75-1.243-1.178-1.416-.21-.085-.556,.01-.849-.056-.451-.103-.7-.559-.942-.228,.058,1.252,1.197,1.696,1.79,2.549,.14,.203,.226,.493,.376,.679,.232,.285,.561,.438,.756,.794,.207,.383,.226,.905,.423,1.303,.243,.483,.696,.801,.944,1.245,.28,.506,.367,1.101,.612,1.642,.166,.365,.489,.669,.754,1.02,.731,.966,1.408,1.826,2.263,2.549,.342-.003,.729,.044,.943-.112,.382-.418,.061-1.34,.282-2.153Zm-22.247-13.933c-.067,.031-.115,.089-.141,.17-.284,1.009-.462,3.504,.471,3.681,.458,.088,.925-.312,1.037-.622,.394-1.091-.961-3.069-1.367-3.229Zm-26.819,23.279c-.224,.22-.194,.592-.331,.792-.152,.222-.438,.27-.564,.452-.186,.264-.198,.667-.425,1.02-.268,.416-.769,.792-1.131,1.02-.439,.275-1.027,.235-1.462,.622-.301,.27-.571,1.019-.613,1.475-.066,.725,.27,1.436,.236,2.151-.046,.949-.979,1.509-1.084,2.661-.047,.517,.178,.905,.236,1.36,.046,.362-.032,.698,.048,1.02,.148,.601,.648,1.121,1.225,1.131,.237,.004,1.098-.249,1.32-.396,.62-.412,.745-1.925,1.085-2.889,.085-.244,.282-.459,.376-.735,.258-.759,.44-1.724,.753-2.606,.364-1.019,.77-2.098,.802-3.339,.13-.307,.544-.401,.612-.853,.024-.153-.11-.483-.139-.792-.101-.989-.289-2.43-.944-2.094Zm39.028-29.677c-.316,.006-.738-.299-.801-.681-.06-.348,.149-.698,.141-1.076-.018-.759-.467-1.053-.802-1.586-.136-.216-.172-.519-.284-.679-.214-.308-.624-.479-.895-.792-.258-.3-.542-.732-.66-1.02-.182-.443-.241-1.018-.518-1.077-.266-.056-.572,.401-.848,.51-.287,.113-.993,.259-1.273,.283-.946,.079-1.714-.225-1.602,1.133-.148,.609-.683,.616-1.038,.905-.451,.369-.78,1.108-1.272,1.699-.239,.289-.586,.469-.801,.737-.18,.223-.236,.581-.425,.794-.503,.571-1.257,.619-1.601,1.416-.02,.941,.37,1.653,.282,2.547-.041,.408-.294,.769-.331,1.19-.03,.36,.123,.748,.048,1.133-.042,.206-.232,.314-.378,.566-.131,.226-.184,.526-.281,.679-.16,.244-.42,.414-.568,.624-.239,.34-.289,.583-.518,.623-1.033,.179-1.287-2.182-1.743-3.172-.211-.455-.639-.865-.849-1.416-.241-.635-.315-1.432-.66-2.152-.293-.615-.697-1.231-.895-1.869-.168-.539-.313-1.214-.471-1.812-.168-.632-.35-1.427-.377-1.925-.039-.735,.118-1.188-.378-1.473-.454,.129-.657,.679-1.178,.679-.503,0-1.853-1.047-1.46-1.982-.329-.56-1.159-.868-1.792-1.529-.362-.379-.689-1.282-1.319-1.358-.174-.022-.4,.096-.566,.113-.399,.042-1.106-.043-1.556,0-.565,.054-1.264,.207-1.979,.113-.461-.06-1.033-.167-1.508-.226-.604-.075-1.406-.246-1.743-.624-.209-.232-.294-.974-.662-1.076-.437-.122-.677,.284-1.083,.396-.864,.238-1.585-.213-2.169-.679-.414-.33-.791-.502-1.084-.737-.717-.576-.845-2.31-1.933-2.323-.378-.004-.981,.28-1.037,.794-.037,.361,.359,1.03,.519,1.303,.529,.895,1.5,1.231,1.791,2.434,.195,.092,.593-.206,.801,.057,.182,.516-.002,1.474,.424,1.699,1.959,.389,2.519-.901,3.395-1.812,.508,.399,.34,.748,.518,1.188,.181,.452,.464,.806,.801,.964,.237,.109,.541,.007,.896,.169,.222,.102,1.152,1.158,1.179,1.53,.024,.333-.61,1.467-.803,1.755-.187,.281-.476,.426-.565,.679-.067,.196-.045,.612-.094,.737-.087,.226-.51,.52-.755,.792-.257,.289-.557,.513-.801,.737-.298,.275-.482,.652-.801,.794-.627,.278-1.224,.159-1.744,.567-.34,.266-.342,.866-.753,1.188-.431,.336-1.168,.339-1.792,.681-.401,.219-.642,.644-.988,.792-.142,.06-.319,.009-.473,.057-.313,.096-.603,.363-.896,.452-.232,.071-.479,.036-.707,.114-.726,.252-1.391,1.138-2.121,.622-.344-.954-.4-2.155-.801-3.002-.205-.432-.607-.565-.754-1.018-.02-.365,.345-.265,.376-.567-.12-.612-.601-.898-.895-1.417-.144-.253-.211-.614-.377-.905-.562-.983-1.67-1.493-1.886-2.719-.058-.333,.01-.595-.046-.85-.093-.419-.328-.859-.566-1.188-.18-.252-.548-.423-.754-.794-.137-.244-.167-.589-.283-.849-.469-1.051-1.147-1.979-1.885-2.719-.384,.067-.797,.099-.989,.398,.191,.741,.485,1.361,.801,1.982,.288,.565,.697,1.174,.895,1.812,.074,.236,.061,.544,.142,.792,.296,.898,1.228,1.174,1.414,2.21,.125,.694-.027,1.174,.142,1.868,.162,.666,.981,1.06,1.32,1.699,.276,.522,.278,1.26,.471,1.756,.282,.727,1.071,1.041,1.65,1.529,.519,.439,.891,1.115,1.319,1.586,.252,.275,.599,.325,.66,.624,.08,.383-.134,.512-.189,.848,.362,.453,.714,1.29,1.32,1.36,.249,.029,.563-.273,.943-.341,.192-.033,.406,.036,.565,0,.251-.054,.47-.323,.756-.396,.481-.124,1.039-.074,1.649-.17,.576-.09,.973-.675,1.414-.509,.484,.639,.137,1.365,0,1.982-.048,.217-.048,.442-.093,.624-.255,1.008-.921,1.755-1.227,2.661-.094,.278-.077,.618-.187,.905-.351,.908-1.083,1.804-1.651,2.549-.32,.419-.602,.798-.942,1.132-.338,.334-.751,.516-1.132,.849-.754,.664-1.54,1.615-2.073,2.493-.206,.341-.304,.732-.519,1.02-.307,.412-.782,.615-1.036,1.02-.201,.319-.335,.897-.566,1.472-.259,.648-.801,1.085-.706,1.982,.035,.343,.291,.557,.377,.907,.146,.604,.034,1.111-.048,1.755,.267,.777,.458,1.641,.943,2.152,.058,1.146-.079,2.258,0,3.228,.05,.618,.25,1.073,.047,1.642-.179,.502-.863,1.385-1.272,1.699-.445,.345-1.126,.435-1.603,.851-.332,.289-.607,.795-.943,1.134-.555,.556-1.317,1.077-1.366,1.642-.028,.325,.214,.817,.282,1.131,.185,.837,.363,2.039,.048,2.945-.342,.98-2.07,.777-2.263,1.812-.058,.315,.115,.566,.094,.907-.017,.289-.332,1.33-.472,1.642-.208,.469-.682,.679-.989,1.077-.386,.502-.581,1.228-.99,1.755-.556,.718-1.307,1.475-2.027,2.096-.626,.543-1.75,1.107-2.733,1.19-.573,.049-1.187-.162-1.791-.056-.221,.037-.462,.282-.755,.339-.17,.033-.344-.036-.518,0-.296,.06-.574,.343-.849,.34-.611-.008-1.395-.884-1.414-1.755-.007-.336,.239-.655,.236-.964-.005-.362-.374-.815-.661-1.473-.275-.632-.383-1.349-.659-1.867-.293-.552-.679-.814-.895-1.247-.434-.871-.466-1.902-.613-2.946-.047-.34-.241-.709-.283-1.133-.051-.52,.052-1.098-.046-1.529-.076-.332-.382-.669-.567-1.076-.332-.734-.566-1.694-.848-2.264-.266-.535-.801-1.092-.849-1.699-.032-.412,.043-1.18,.094-1.586,.051-.398,.297-.713,.377-1.132,.054-.279-.011-.599,.046-.907,.24-1.296,1.428-1.768,1.273-3.342-.066-.668-.459-.997-.519-1.756-.027-.355,.147-.666,.141-1.02-.008-.478-.345-1.188-.519-1.642-.478-1.25-.77-2.392-1.461-3.341-.376-.518-.869-.883-1.178-1.36-.253-.389-.562-1.117-.566-1.415-.005-.323,.207-.525,.283-.85,.099-.417,.106-1.208,.236-1.869,.06-.303,.332-1.037,.284-1.529-.048-.474-.635-1.381-1.132-1.529-.658-.196-1.336,.253-2.168,.17-.716-.545-.663-1.971-1.697-2.152-1.358-.239-2.747,.419-3.677,.905-.537,.282-1.083,.711-1.555,.737-.448,.026-.888-.286-1.319-.339-.562-.07-1.282-.005-1.839,.113-.542,.116-1.031,.581-1.508,.622-.914,.083-1.783-.989-2.357-1.529-.351-.328-.708-.598-1.037-.905-.352-.331-.809-.532-1.084-.849-.371-.432-.371-1.183-.566-1.756-.229-.675-.928-1.171-1.461-1.812-.399-.479-1.314-1.195-1.414-1.812-.05-.315,.112-.678,.094-1.02-.025-.496-.336-.778-.33-1.133,.01-.498,.498-.883,.613-1.303,.06-.215,.031-.518,.094-.792,.132-.575,.449-.915,.378-1.756-.029-.335-.268-.641-.283-1.075-.01-.298,.163-.464,.141-.737-.036-.483-.558-.578-.613-1.132-.055-.573,.456-1.047,.755-1.699,.134-.292,.208-.74,.33-.963,.264-.482,.695-.715,.896-1.19,.148-.35,.195-.87,.33-1.132,.174-.337,.519-.519,.849-.963,.268-.362,.377-.799,.565-.963,.237-.206,.591-.256,.849-.396,.873-.478,1.511-1.093,1.932-2.097-.128-.911,.065-1.296,.377-1.925,.288-.582,.499-1.138,.99-1.473,.589-.4,1.143-.438,1.554-1.188,.206-.376,.515-1.025,.519-1.416,.005-.561-.479-1.279-.896-1.36-.426-.081-1.081,.389-1.32-.169-.076-.179,.029-.596,0-.793-.055-.371-.319-.632-.33-.906-.023-.532,.436-1.085,.565-1.699,.176-.835,.006-1.474-.048-2.435,.659-1.249,2.124-.629,3.583-.511,.219,.019,.47-.063,.707-.056,.865,.024,1.546,.338,1.838-.567,.11-.34,.207-1.606,.142-1.926-.077-.379-.696-1.362-.991-1.585-.468-.358-1.146-.202-1.414-.849,.218-1.119,1.26-.187,1.885-.453,.319-.136,.283-.799,.567-.907,.193-.073,.439,.233,.707,.227,.228-.006,1.056-.505,1.272-.681,.301-.245,.394-.752,.659-.962,.18-.141,.417-.124,.613-.226,.401-.207,.908-.629,1.178-1.02,.389-.561,.564-1.256,1.037-1.359,.632-.139,2.062,.15,2.169-.681,.101-.791-.58-1.413-.33-2.265,.197-.674,.701-.555,1.414-.963,.344,.293,.244,1.131,.282,1.643,.438,.004,1.33-.156,1.414-.623,.106-.584-.638-1.177-.801-1.529-.176-.382-.214-1.052-.565-1.132-.718-.166-1.415,1.188-2.31,1.188-.588,0-1.212-.545-1.367-1.076-.088-.303-.008-.589-.048-.907-.057-.463-.288-.944-.188-1.585,.361-.743,1.193-.864,1.791-1.247,.226-.145,.408-.453,.659-.566,.423-.188,1.047,.001,1.462-.284,.262-.179,.188-.488,.377-.849,.118-.228,.406-.36,.565-.622,.111-.182,.124-.457,.236-.624,.409-.612,1.157-.838,1.461-1.472,.134-.28-.232-.385-.141-.793,.152-.395,.74-.104,1.083-.17,.469-.087,.902-.772,1.414-.905,.534-.139,1.107-.055,1.603-.283,.297-.138,.569-.461,.849-.511,.099-.017,.378,.064,.518,.057,.18-.008,.373-.142,.613-.17,.346-.042,.776,.102,1.226,.113,.745,.02,1.453-.269,2.073,.057,.324,.17,.288,.612,.706,.792,.211,.092,.49-.036,.802,0,.462,.053,.944,.436,1.555,.511,.218,.026,.443-.033,.659,0,.674,.099,1.414,.525,2.075,.792,.552,.225,1.722,.504,1.743,1.133,.026,.745-1.018,.963-1.461,.963-.742,0-1.724-.52-2.497-.226,.011,1.281,1.162,2.251,2.215,2.095,.092-.602-.595-.267-.519-.849,.47-.426,1.033,.286,1.697,.17,.259-.084,.216-.535,.282-.849,.56-.409,1.263-1.01,2.121-.566,.042-.1,.106-.176,.189-.226,.056-.622-.566-.946-.236-1.53,.164-.402,1.043-.263,1.178,.057,.068,.383-.218,.342-.189,.679,.167,.452,.551,.523,.755,.51,.463-.03,.555-.528,.99-.794,.176-.107,.434-.119,.659-.226,.267-.127,.493-.385,.707-.453,.157-.05,.394,0,.613-.057,.278-.071,.573-.34,.801-.339,.284,0,.488,.395,.848,.453,.197,.032,.42-.134,.707-.17,.231-.03,.47,.033,.66,0,.45-.079,.759-.363,1.131-.34,.263,.017,.714,.443,.895,.227,.305-.364-.407-.634-.187-.964,.722,.066,1.491,.046,2.215,.17,1.077,.184,2.091,.825,3.062,.849-.092-.787-.842-.56-1.178-.906-.102-.106-.524-.935-.518-1.19,.002-.128,.533-1.217,.659-1.359,.415-.469,1.778-.466,2.168,.169,.267,.435,.178,1.09,.565,1.077,.333-.011,.51-.995,.896-1.02,.319-.02,.481,.631,.801,.624,.391-.01,.662-.884,1.179-.907,.279-.013,.371,.172,.801,.226,.295-.228-.098-.528,.048-.85,.527-.46,1.73-.11,2.403-.396,.188-.269-.24-.459-.047-.737,.581-.488,1.557-.532,2.546-.735,.604-.124,1.174-.629,1.648-.681,.495-.053,.968,.349,1.414,.34,.271-.006,.587-.104,.849-.226,.265-.125,.446-.433,.708-.51,.413-.122,.936,.058,1.414,0,.506-.062,.953-.298,1.319-.226,.343,.066,.618,.505,.943,.566,.993,.186,2.018-.179,2.922,.113,.162,.053,.325,.255,.519,.341,.606,.266,1.019,.183,1.132,1.075,.476,.203,.756,.728,1.319,.907,.376,.118,.754-.057,1.178-.057,.557,0,1.27,.026,1.744,.113,.27,.05,.493,.289,.755,.341,.19,.037,.442-.024,.659,0,.295,.033,.56,.179,.801,.17,.494-.019,.869-.548,1.272-.624,.217-.04,.505,.093,.707,.113,.794,.08,1.709-.124,2.357,.057,.346,.097,.938,.555,1.32,.905,.277,.254,.445,.659,.707,.849,.248,.18,.876,.504,1.132,.454,.301-.057,.314-.461,.612-.622,.936-.25,2.595,.358,3.347-.057,.291-.162,.234-.532,.471-.737,1.414-.083,2.823,.07,4.148,.113,.466,.016,.947-.143,1.368-.056,.466,.097,.807,.659,1.271,.849,.309,.126,.854,.06,1.32,.17,.312,.073,.569,.299,.801,.339,.504,.086,.985-.067,1.463-.113,1.081-.105,2.47-.173,3.535,.34,.567,.273,.805,.825,1.413,.905,.871,.116,2.22-.086,3.112,0,.213,.021,.412,.127,.565,.113,.299-.026,.481-.331,.849-.339,.466-.013,1.209,.874,1.886,.736,.292-.237-.234-.567,.045-.793,.266-.265,.629-.003,1.038,0,.223,.003,.497-.136,.707-.113,.518,.054,1.01,.613,1.65,.792,.508,.143,1.207,.196,1.839,.114,.452-.06,.841-.243,1.272-.17,.209,.035,.394,.216,.612,.284,.201,.061,.398,.002,.566,.056,.157,.052,.313,.229,.472,.283,.876,.302,2.043,.45,2.97,.794,.545,.202,1.102,.608,1.556,.622,.223,.009,.421-.116,.707-.113,1.424,.012,3.099,.724,2.968,2.323-1.666,.439-3.061-1.379-4.808-.849-.279,.084-.588,.451-.564,.792,.065,.987,2.134,.904,2.308,1.869-.339,.305-.709,.017-.989,.057-.425,.06-1.141,.599-1.414,.906-.319,.359-.599,1.278-.943,1.36-.421,.099-1.064-.499-1.697-.34-.232,.059-.455,.406-.659,.453-.52,.119-1.182-.34-1.507,.396,.171,.518,.067,1.238,.424,1.529,.23,.189,.518,.043,.801,.17,.331,.149,.514,.634,.8,.907,.234,.222,.484,.228,.614,.509,.03,.417-.138,.463-.095,.736,.074,.475,.692,.583,.707,.905,.021,.409-.389,.322-.47,.737-.029,.263,.254,.333,.282,.679,.019,.232-.156,.473-.141,.737,.02,.377,.268,.629,.235,.962-.027,.286-.235,.509-.425,.624-.902-.697-1.715-1.656-2.687-2.549-.994-.915-2.57-2.039-2.733-3.964-.005-.295,.52-.526,.612-.963,.038-.179-.059-.433-.047-.679,.033-.665,.49-1.304,.472-1.699-.023-.434-.695-1.239-1.038-1.36-.274,.173-.003,.516-.047,.794-.055,.342-.4,.759-.707,.792-.892,.093-.992-1.38-2.404-.963-.365,.109-.879,.771-.753,1.586,.039,.247,.606,.513,.565,.849-.039,.326-1.284,.422-1.556,.396-.76-.073-1.152-.757-1.837-.737-.336,.01-.632,.339-.896,.396-1.484,.326-3.687-.878-4.193,.679-.073,.22-.032,.508-.095,.737-.091,.328-.309,.584-.377,.793-.057,.175-.048,.519-.142,.792-.086,.247-.977,1.214-.188,1.473,.188,.06,.276-.097,.519-.057,.405,.066,1.078,.847,1.554,.849,.285,.002,.679-.384,.896-.396,.437-.026,.752,.313,1.084,.509,.317,.187,.802,.581,1.038,.566,.445-.027,.232-.398,.659-.566,.815,.29,1.197,1.328,1.979,2.152,.284,.297,.703,.553,1.085,.963,.213,.229,.869,.842,.896,1.133,.025,.27-.184,.386-.237,.623-.076,.345,.102,.598-.094,.849-.752-.334-.921-1.225-1.461-1.982-.2-.282-.402-.617-.706-1.02-.138-.181-.638-.82-.944-.679-.593,.27,.325,1.35,.472,1.586,.313,.499,.729,1.171,.756,1.699,.017,.337-.183,.951-.189,1.529-.004,.39,.082,.745,.047,1.076-.036,.332-.232,.711-.331,1.077-.111,.415-.136,.911-.235,1.188-.183,.51-.8,1.111-1.227,1.133-.391,.02-.559-.362-.943-.339-.58,.033-.687,.675-1.036,1.188,.03,.558,.175,.749,.094,1.133-.127,.6-.822,.705-.801,1.302,.019,.553,.635,.661,.942,.907,.421,.336,1.157,1.084,1.557,1.699,.262,.403,.64,1.157,.613,1.585-.036,.561-1.378,1.34-1.934,1.133-.527-.196-.346-.801-.47-1.358-.096-.429-.376-.614-.518-.963-.075-.183-.041-.473-.143-.679-.284-.576-.781-.262-1.368-.624-.384-.237-.272-.736-.424-1.19-.202-.609-1.057-.897-1.743-.735-.505,.117-.662,.626-1.132,.735-.691-.492,.142-1.706-.707-1.812-.65-.082-1.081,1.121-1.462,1.473-.257,.236-.723,.284-.753,.622-.056,.625,.549,.498,1.035,.737,.442,.217,.493,.818,.896,.849,.337,.027,.561-.417,.895-.453,.579-.062,1.05,.252,1.414,.51-.235,.686-1.505,1.19-1.508,2.095-.002,.525,.506,.615,.896,.963,.329,.293,.762,1.121,1.225,1.699,.2,.249,.524,.413,.614,.567,.218,.374,.183,.831,.423,1.077,.04,.31-.118,.386-.094,.679,.117,.408,.638,.331,.755,.737-.097,.977,.242,1.896-.424,2.265-.307,1.752-.654,3.122-1.65,4.077-.896,.857-2.079,1.11-3.159,1.529-.28,.109-.504,.463-.753,.566-.627,.256-1.744,.1-1.79,1.02-.026,.454,.478,.727,.518,1.189,.059,.709-.469,1.423-.849,1.473-.274,.035-.864-.193-.896-.794-.037-.675,.697-.951,.755-1.359,.1-.721-.518-1.423-1.225-1.359-.623,.056-2.039,1.557-2.073,2.379-.027,.613,1.011,1.89,1.366,2.265,1.323,1.402,2.729,2.242,2.497,5.663-.331,.867-1.176,1.051-1.838,1.529-.504,.363-.755,1.49-1.603,1.586-.341-.14-.142-.78-.236-1.076-.129-.406-.803-.605-1.225-1.02-.345-.341-.49-.877-.754-1.19-.33-.39-.823-.472-1.226-.736-.253-.166-.451-.749-.707-.735-.415,.02-.271,.501-.376,1.301-.105,.788-.583,1.393-.425,2.323,.067,.38,.462,.688,.659,1.076,.327,.642,.373,1.39,.708,1.756,.221,.242,.597,.295,.848,.509,.5,.429,1.38,1.359,1.556,1.87,.205,.596,.007,1.299,.142,1.926,.157,.725,.946,1.244,.473,1.982-.451-.1-.845-.455-1.227-.737-.647-.482-.945-.897-1.367-1.699-.124-.235-.307-.464-.377-.679-.164-.508-.129-1.083-.282-1.699-.132-.531-.644-1.369-1.038-1.814-.331-.374-.918-.593-.943-1.132-.034-.76,.214-1.653,.189-2.549-.006-.193-.115-.388-.141-.622-.05-.435,.036-.967-.049-1.36-.077-.362-.297-.688-.424-1.018-.126-.326-.255-.653-.376-1.077-.192-.655-.406-1.918-.849-1.982-.473-.068-.939,1.064-1.556,1.077Zm-72.069-40.55c-.027,.359,.569,.554,.943,.509,.296-.034,.513-.279,.801-.283,.558-.006,.921,.498,1.273,.51,.809,.027,1.603-.898,2.452-.794,.383,.047,.611,.373,.895,.341,.455-.052,.842-.682,1.179-.907-.143-.954,.013-2.213,.755-2.265,.509-.036,1.274,1.047,1.366,0,.041-.455-.402-.857-.707-.85-.271,.007-.627,.645-.849,.114,.001-.519,.486-.382,.755-.51,.2-.096,.342-.358,.566-.453,1.121-.473,2.675,.465,3.111-.679-.995-1.02-2.688,.372-3.818,.283-.482-.037-1.118-.468-1.272-1.02-.049-.174-.008-.409-.047-.735-.043-.362-.199-.74-.188-.964,.047-1.023,2.167-1.216,2.167-2.491-.404-.466-1.591-.388-1.979,.113-.139,.18-.132,.545-.33,.907-.423,.774-1.788,.865-2.215,1.812-.095,.21-.261,.785-.189,1.132,.112,.537,1.1,.682,1.132,1.246,.055,.95-1.208,.831-1.368,1.643-.071,.368,.147,.858,.095,1.189-.097,.595-.575,.422-1.178,.736-.308,.16-.607,.75-.943,.792-.311,.04-.5-.217-.707-.169-.309,.07-.206,.526-.66,.622-.362,.076-.995-.389-1.037,.17Zm16.733,63.543c-.093-.522,.106-1.136-.284-1.416h-.14c-.342,.928,.141,2.46,.801,2.55,.187-.416-.298-.688-.377-1.134Zm3.818,5.267c-.21,.471-.434,1.606,.094,1.869,.218-.416,.492-1.586,0-1.869h-.094Zm-2.121-11.043c-.13,.525,.077,.941-.095,1.473,.185,.419,.651,.502,1.226,.452,.318-.168,.278-.489,.424-.85,.16-.392,.533-.806,.471-1.301-.136-1.091-1.834-.554-2.026,.226Zm2.261-37.095c.026-.608-.193-1.065-.236-1.925-.87-.631-1.52,.585-2.403,.452-.543-.082-.932-.841-1.508-.735-.318,.057-.475,.55-.802,.622-.674,.149-.98-.648-1.696-.339-1.009-.924-1.46-2.429-1.697-4.135-.55-.867-1.389-.162-1.791,.396-.248-.003-.557-.164-.612,.17-.186,1.047,1.232,1.159,1.224,1.869-.005,.462-.554,.419-.801,.735-.263,.336-.088,.635-.423,.849-.93,.135-1.238-.476-1.226-1.472-.401-.732-.908-1.265-1.272-1.869-.135-.223-.336-.571-.377-.907-.033-.265,.105-.601,.047-.905-.102-.541-.94-.948-1.462-1.246-.557-.319-1.255-.621-1.65-1.02-.28-.283-.412-.775-.659-.962-.211-.159-.473-.126-.661-.283-.258-.217-.215-.579-.565-.681-.177-.078-.451,.212-.565,.398-.23,1.236,.607,1.32,.989,1.868,.263,.376,.394,.943,.661,1.19,.285,.265,.671,.216,1.037,.396,.253,.124,.417,.502,.659,.679,.45,.329,1.172,.386,1.226,1.019-.28,.229-.914-.333-1.131,.228-.056,.368,.243,.557,.236,.905-.012,.558-.528,1.169-.991,1.077-.046-.332,.246-.604,.236-.964-.021-.721-1.226-1.82-1.838-2.151-.287-.156-.636-.164-.896-.341-.463-.313-1.274-1.083-1.556-1.528-.337-.537-.625-1.529-1.366-1.473-.302,.023-.552,.356-.801,.51-.226,.138-.476,.267-.707,.452-.275,.219-.498,.44-.755,.453-.591,.03-1.094-.528-1.602-.396-.171,.045-.314,.229-.519,.454-.007,.33,.082,.542,.048,.905-.154,.319-.609,.299-.943,.511-.488,.309-.923,.944-1.32,1.416-.256,.303-.487,.554-.519,.793-.025,.187,.132,.542,.096,.794-.042,.273-.469,.839-.755,1.075-.167,.137-.388,.156-.566,.283-.371,.265-.538,.609-.849,.679-.824,.185-2.321-.199-2.309,.85,.007,.7,.794,.703,1.273,.679,.667-.031,1.233,.17,1.602,.057,.255-.077,.533-.421,.801-.566,.169-.091,.344-.093,.471-.17,.282-.17,.442-.446,.661-.567,.431-.236,1.233-.42,1.696-.453,.635-.045,1.3,.078,2.121,0,.293-.027,.582-.253,.896-.283,.513-.048,1.188,.243,1.602,.227,.287-.011,.607-.346,.943-.341,.38,.008,.78,.332,.849,.624,.039,.166-.08,.43-.048,.68,.055,.411,.349,.582,.331,.849-.025,.355-.76,.828-.66,1.246,.065,.268,.593,.549,.849,.736,.268,.196,.72,.468,1.037,.509,.267,.036,.502-.089,.755-.056,.406,.053,1.063,.349,1.32,.566,.443,.375,.381,.975,.895,1.188,.219,.091,.614,.04,.895,.115,.687,.178,1.196,.862,1.697,.792,.789-.11,.43-1.004,.519-1.642,.201-1.446,2.552-1.38,3.016-.398,.344,.11,.645,.017,1.037,.17,.226,.089,.395,.386,.613,.453,.164,.05,.403-.029,.613,0,.904,.123,1.722,.931,2.499,.792,.492-.087,.849-.643,1.319-.679,.902-.067,1.479,.807,2.452,.396,.715-.302,.556-1.193,.801-2.095,.17-.628,.498-1.055,.518-1.529Zm3.064-8.721c-.491-.352-1.077-.658-1.649-1.077-.332-.243-1.594-.702-1.602-1.188-.01-.532,.939-.706,.565-1.643-.645-.189-2.179,.109-2.073,.963,.061,.493,.547,.22,.659,.736-.461,.197-1.023,.715-1.508,.624-.577-.109-.726-.961-1.036-1.473-.449,.017-.744-.522-1.273-.453-.554,.073-.849,1.04-1.132,1.53-.15,.257-.389,.39-.472,.622-.049,.14,.005,.363-.046,.566-.162,.629-.615,.86-.567,1.416,.044,.49,.488,.711,.52,1.133-.031,.435-.612,.209-.566,.737,.844,.836,.89-.395,1.32-.567,.345-.139,1.022,.114,1.46,0,.354-.093,.632-.498,1.037-.679,.247-.112,.554-.211,.896-.228,1.5-.074,2.468,1.098,3.771,1.133,.431,.012,1.203-.016,1.65-.113,1.277-.277,.694-1.575,.047-2.038Zm9.758,2.604c.108,.017,.052-.163,.142-.17,.309-.179,.777,.286,.941-.169,.004-.671-.705-1.171-1.414-.849-.204-.169-.232-.551-.282-.907-.534-.382-1.857-1.217-1.839-1.982,.015-.629,.691-.983,1.461-.962,.325-.296,.116-1.206-.188-1.416-1.219-.321-1.868-.104-2.64,.566-.37,.322-.783,.544-.99,.737-.19,.178-.445,.662-.423,.905,.03,.35,.447,.556,.613,1.02,.084,.239,.067,.538,.141,.737,.206,.546,.733,.899,1.131,1.358,.281,.325,1.069,1.028,1.084,1.416,.015,.323-.242,.395-.329,.737-.089,.335-.191,1.125-.141,1.416,.103,.622,.639,.644,1.129,.907,.487,.26,.956,.721,1.462,.735,.539,.017,1.113-.19,1.414-.566,.235-1.964-1.038-2.111-1.273-3.511Zm4.195-5.267c-.751,.226,.045,1.593,.567,1.473,.764-.178,.008-1.645-.567-1.473Zm2.451-22.653c-.172-.198-.75-.275-.988-.735-.289-.553-.249-1.293-.944-1.132-.007,.066,.008,.16-.048,.169-.065,1.238,1.436,1.55,1.414,2.548-.011,.524-.471,.579-.329,1.19,1.108,.31,1.628-1.193,.895-2.039Zm9.097,21.804c-.177-.428-.687,.126-.47,.511,.319,.024,.433-.198,.47-.511Zm9.898-26.731c-.519,0-.714,.246-1.037,.453-.177,.113-.538,.176-.424,.509,.452-.066,1.352-.311,1.461-.962Zm11.878,17.726c-.544,.113-.151,.793-.188,1.19-.053,.562-.55,.953-.519,1.529-.181,.254-.49,.355-.518,.792,.3,.249,.431-.196,.659-.453,.361-.406,.912-.647,1.037-1.133,.187-.721-.104-1.449-.471-1.925Zm-46.616-12.855c.169-.571-.797-.67-.661-.057,.096,.213,.509,.227,.661,.057Zm-6.457,33.81c.183,.542,1.025,.229,1.083-.226-.174-.414-1.061-.242-1.083,.226Zm-16.167-3.058c.345,.679,1.065,.908,1.838,1.076,.278-.25,.298-.812,.425-1.246-.678,.016-1.771-.307-2.263,.17Zm-3.441-3.002c.012,.632,.056,1.037-.048,1.586,.304,.698,.977,.071,1.132-.397,.243-1.572-.437-2.001-1.084-1.189Zm.613-.962c.217-.156,.383-.371,.33-.85-.478-.622-.951,.718-.33,.85Zm-9.804-13.424c.174,.114,.411,.066,.566,.17,.269,.182,.479,.584,.425,.907-.08,.465-.586,.334-.849,.679,.045,.659-.382,.75-.519,1.19,.082,.279,.435,.232,.471,.567-.052,.36-.588,.412-.471,.792,.505,.473,1.031-.097,1.508-.17,1.055-.159,2.135,.157,2.782-.454-.088-.605,.526-.818,.472-1.359-.042-.407-.601-.455-.849-.736-.132-.15-.168-.499-.33-.792-.186-.336-.548-.579-.755-.907-.277-.442-.85-1.08-.848-1.416,.003-.386,.4-.491,.471-1.02-.082-.486-.837-.164-.895-.679,.031-.32,.281-.379,.283-.736-.055-.047-.128-.074-.236-.056-.242,.378-.672,.221-1.084,.396-.332,.14-.951,.831-1.037,1.076-.142,.403,.034,.852,0,1.473,.269,.14,.435,.772,.895,1.076Zm-2.168,2.719c.267-.096,.658-.08,.802-.339,.164-.299,.018-.814,.141-1.247,.137-.476,.518-.538,.471-.963-.061-.562-1.161-.915-1.79-.453-.359,.263-.477,.667-.755,.794-.382,.173-.65,.026-.707,.454-.046,.349,.244,.522,.236,.849-.139,.416-.544,.516-.613,1.018,.477,.937,1.622,.1,2.215-.113Zm-32.569-15.291c-.342-.661-1.469-.01-1.367,.511,.127,.65,1.466-.007,1.367-.511Zm-8.72,4.758c-.185,.134-.206,.346-.189,.452,.101,.602,1.047,.086,1.038-.226-.009-.306-.597-.412-.849-.226Zm24.227,72.772c.095,2.058-1.22,2.719-1.979,4.079-.159,.285-.247,.735-.471,1.133-.452,.799-.956,.966-.895,2.435,.017,.403,.188,.797,.188,1.246,0,.548-.039,1.264-.142,1.756-.077,.375-.336,.679-.377,1.02-.042,.345,.085,.612,.048,.906-.041,.327-.312,.787-.519,1.245-.435,.966-.531,2.103-1.414,2.491-.519,.229-1.222,.101-1.79,.34-.23,.097-.52,.352-.802,.509-.82,.459-1.989,1.078-2.215,2.095-.201,.907,.281,1.629,.141,2.663-.146,.308-.344,.615-.565,.962-.203,.322-.305,.7-.519,1.02-.283,.426-.724,.615-.895,1.19-.058,.195-.022,.426-.094,.735-.027,.114-.201,.291-.283,.509-.076,.201-.073,.459-.142,.625-.215,.522-.856,1.711-1.32,1.869-.979,.329-2.01-.499-2.686-.342,.097,.568,.441,.509,.661,.907,.128,.234,.199,.545,.376,.793,.212,.294,.398,.403,.425,.736,.054,.698-.399,1.4-.707,1.643-.282,.222-.868,.352-1.367,.452-.349,.07-1.249,.074-1.414,.342-.243,.393,.129,1.365-.046,1.755-.352,.828-1.3-.023-1.791,.226-.042,.427,.089,.875,.377,1.075,.297,.209,.746-.063,.943,.341-.096,.564-.601,.636-.707,1.19,.013,.541,.151,.682,.094,1.018-.123,.728-1.064,.698-1.037,1.473,.041,1.16,1.852,.685,1.885,1.813,.019,.684-.519,.691-.707,1.357-.101,.357,.058,.44,0,.736-.079,.402-.471,.518-.471,.963-.001,.542,.66,1.138,.989,1.586,.323,.439,.737,1.065,1.178,1.36,.662,.439,1.647,.34,1.933,1.132-.091,.477-.473,.604-.849,.735h-1.461c-.631-.349-1.396-.575-2.168-.905-.279-.119-.593-.402-.895-.565-.227-.125-.483-.173-.66-.285-.406-.256-.863-1.086-1.273-1.415-.249-.201-.639-.307-.801-.512-.155-.193-.239-.612-.377-.848-.152-.26-.432-.45-.613-.737-.391-.625-.891-1.466-.895-1.926-.004-.453,.36-.761,.236-1.187-.115-.402-.839-.315-.943-.795-.063-.289,.208-.777,.188-1.187-.011-.238-.382-.563-.235-.908,.169-.396,.488,.033,.754-.169-.2-.818,.016-2.134-.66-2.38-.348,.352,.355,1.143-.236,1.36-.57-.305-.438-1.207-.566-1.869-.083-.438-.264-.831-.282-1.303-.009-.248,.081-.535,.047-.791-.1-.763-.807-1.389-.849-2.154-.019-.369,.188-.681,.236-1.076,.033-.267-.031-.567,0-.849,.042-.36,.207-.691,.236-1.02,.056-.622-.001-1.689-.094-2.21-.116-.654-.549-1.21-.613-1.923-.023-.259,.072-.689,.048-1.02-.023-.307-.163-.612-.188-.964-.024-.323,.067-.631,.094-1.02,.05-.711-.115-1.503-.094-2.209,.006-.207,.096-.362,.094-.565-.006-.585-.168-1.174-.189-1.756-.037-1.076,.099-1.838-.046-2.832-.11-.753-.245-1.905-.472-2.377-.252-.528-1.244-1.423-1.744-1.758-.33-.22-.725-.296-1.084-.509-.768-.451-2.256-1.408-2.592-2.321-.097-.265-.085-.614-.189-.907-.205-.581-.637-1.083-.943-1.643-.582-1.069-1.052-2.408-1.65-3.511-.302-.56-.564-1.196-.895-1.642-.194-.263-.815-.509-.895-.907-.106-.523-.428-1.243-.377-1.642,.068-.542,.944-.98,.943-1.472-.001-.42-.468-.665-.566-1.019-.238-.867,.139-1.375,.424-2.097,.094-.236,.186-.617,.283-.792,.173-.312,.524-.399,.753-.737,.128-.189,.21-.582,.377-.849,.359-.572,.937-.786,1.085-1.303,.12-.421,.19-2.524,.046-3.228-.082-.407-.397-.746-.518-1.133-.213-.684-.263-1.43-.849-1.416-.362,.008-.616,.489-.849,.792-.056,.403-.026,.839-.377,.962-.536,.19-.742-.678-1.367-.906-.249-.091-.645-.086-.801-.17-.456-.246-.604-1.048-1.084-1.36-.402-.259-.747-.169-.99-.566-.101-.273-.022-.767-.046-1.133-.517-.363-.955-1.717-1.556-2.038-.398-.213-1.009-.193-1.508-.396-.234-.096-.415-.219-.661-.283-.302-.082-.613-.086-.847-.228-.933-.556-1.437-2.36-2.592-2.321-.493,.016-.968,.569-1.414,.566-.444-.003-1.188-.426-1.745-.736-.579-.323-1.219-.499-1.696-.792-.386-.237-.653-.671-.99-.851-.258-.137-.635-.161-.847-.281-.301-.172-.615-.538-.99-.851-.356-.296-.74-.748-.755-1.131-.016-.443,.339-.821,.377-1.247,.121-1.349-.706-2.319-1.226-3.115-.385-.592-.838-1.094-1.225-1.642,.021-.363,.021-.429,0-.792-.293-.342-.539-.848-.849-1.36-.28-.462-.825-.954-.895-1.472-.087-.636,.201-1.195,0-1.813-.336-1.025-1.52-.562-1.368,.794,.043,.373,.481,.876,.613,1.246,.136,.377,.109,.848,.236,1.303,.122,.436,.487,.812,.613,1.303,.2,.775,.194,1.61,.377,2.095,.162,.43,.758,.838,.424,1.359-.446,.111-.618-.425-.895-.737-.155-.173-.715-.502-.801-.905-.072-.334,.176-.782,.094-1.19-.162-.799-1.505-.819-1.509-1.642-.002-.516,.562-.578,.567-1.077,.004-.546-.62-1.008-.755-1.471-.123-.425-.143-1.101-.188-1.699-.044-.561,.013-1.21-.095-1.643-.096-.389-.583-.924-.895-1.133-.413-.276-.74-.162-.943-.566-.176-.353-.292-1.091-.33-1.472-.068-.681-.015-1.426-.048-2.153-.031-.728-.093-1.426,0-2.208,.233-.548,.658-.818,.896-1.36,.165-.378,.189-.844,.376-1.246,.345-.74,1.097-1.423,1.603-2.152,.545-.786,1.048-1.538,1.367-2.436,.114-.319,.421-1.025,.377-1.416-.062-.545-.916-.994-.849-1.642,.043-.402,.519-.396,.661-.793,.073-.204,.138-.775,.142-1.02,.007-.546-.233-1.115-.142-1.699,.077-.498,.694-.7,.378-1.246-.314-.541-.879,.291-1.226-.057-.319-.322,.064-.711,.094-1.303,.012-.236-.114-.505-.094-.679,.029-.253,.439-.679,.33-.85-.255-.387-.541-1.371-1.085-1.699-.691-.417-1.44-.136-2.403-.34-.591-.125-.87-.788-1.414-.735-.336,.031-.529,.493-.99,.735-.457,.24-1.055,.159-1.508,.283-.45,.125-.666,.498-1.132,.453-.388-.035-.39-.456-.847-.509-.178-.021-.517,.133-.801,.17-.728,.091-2.044,.136-2.782-.057-.675-.176-1.091-.433-1.838-.85-.561-.312-1.601-.697-1.556-1.19,.029-.318,.986-.654,1.367-.792,.614-.225,.993-.588,1.462-.624,.181-.013,.419,.135,.659,.115,.242-.021,.539-.289,.849-.34,.658-.11,1.586,.04,1.508-.737-.5-.475-2.539,.352-2.592-.679-.032-.623,.774-.812,1.368-.962,.54-.137,1.36-.369,1.838-.34,.538,.033,1.246,.756,1.556-.056,.15-.577-.183-1.062-.283-1.53,.4-.664,1.137-.581,1.697-.679,.64-.113,1.163-.25,1.791-.567,.551-.278,1.137-.464,1.79-.567,.64-.1,1.262-.39,1.839-.453,.475-.052,.911-.006,1.366-.113,.404-.094,.83-.363,1.274-.339,.297,.016,.55,.276,.847,.339,.28,.059,.6-.017,.896,.057,.227,.057,.432,.242,.659,.283,.357,.064,.74-.06,1.084,0,.317,.054,.586,.292,.895,.339,.726,.113,1.557-.046,2.263,.114,.268,.06,.509,.219,.801,.283,.276,.06,.58-.009,.849,.056,.375,.09,.688,.516,1.084,.567,.73,.091,1.548-.381,2.309-.454,.551-.052,1.119,.027,1.697-.113,.526-.128,1.036-.372,1.508-.396,.257-.013,.473,.094,.707,.057,.244-.04,.537-.392,.801-.34,.351,.067,.289,.601,.661,.737,.411-.256,.82,.017,1.272,0,.441-.019,.834-.262,1.32-.17,.858,.162,2.057,1.172,2.733,.623,.17-.138,.13-.377,.283-.736,.209-.488,.619-1.061,.519-1.756-.945,.018-1.847,.573-2.923,.623-1.087-.818,.291-1.326,1.084-1.699,.654-.309,1.172-.994,1.981-1.133,.659-.114,1.384,.175,2.167,.283,.457,.063,.914-.039,1.178,.056,.463,.168,.701,.718,1.084,.85,.165,.057,.437,.051,.659,.114,.424,.117,.803,.386,1.226,0,.332,.071,.372,.496,.707,.566,.313-.203,.555-.72,1.037-.849,.21-.057,.43,.042,.66,0,.384-.074,.896-.699,1.132-.115-.096,.409-.61,.471-.896,.794-.253,.287-.644,.947-.612,1.246,.056,.54,.73,.331,.753,1.02-.1,.396-.483,.219-.801,.396-.29,.162-.399,.496-.707,.566-.857,.194-1.568-.259-2.309-.226-.035,.386,.367,.611,.565,.735,.672,.425,1.22,.366,2.168,.34,.486-.013,1.044,.174,1.462-.17,.264-.217,.25-.696,.471-.962,.266-.319,.881-.643,1.272-.567,.214,.043,.515,.349,.519,.567,.007,.515-.606,.35-.613,.907,.399,.287,1.452-.315,1.508-.793,.04-.349-.343-.551-.33-.906,.023-.593,.694-.583,.613-1.19-.324-.306-.662,.066-.991,0-.463-.093-.88-.759-1.084-1.19,.205-.304,.633-.101,.943-.056,.346-.576,.992-.801,1.885-.907,.318-.037,.741-.189,.896,.17,.076,.537-.66,.858-.519,1.473,.634,.19,.843-.838,1.367-1.247,.231-.18,.562-.3,.895-.452,.29-.133,.611-.462,.849-.453,.261,.008,.307,.266,.566,.396,.232,.117,.536-.08,.613,.283-.546,1.137-2.583,.483-3.111,1.642,.118,.777-.319,1.517,.048,2.039,.262,.372,.852,.119,.989,.509,.185,.522-.571,.522-.376,1.133,.498,.359,1.093-.342,1.554-.622,.495-.302,1.121-.658,1.178-1.36-.249-.575-1.177-.13-1.319-.735-.077-.329,.284-1.066,.376-1.19,.492-.662,2.208-1.605,3.441-1.473,.235,.026,.472,.197,.707,.227,.811,.1,1.768-.421,2.404,0,.512-.359,1.126,.049,1.838-.057,.549,.389,.398,1.217,1.226,1.586,.225,.1,.506,.029,.801,.113,.219,.063,.456,.372,.707,.511,.357,.195,.631,.15,.707,.452,.075,.296-.26,.488-.236,.794,.204,.201,.033,.505,.142,.792,.203,.525,.716,.486,1.224,.737,.357,.176,1.119,.715,1.085,1.133-.023,.28-.716,.772-.943,.907-.161,.094-.956,.556-1.225,.509-.445-.079-.619-1.161-1.226-1.133-.264,.013-.513,.205-.519,.624-.01,.744,.693,.772,.707,1.416,.019,.769-.35,.822-.895,1.301-.39-.19-.719-.458-1.226-.509-.301,.43,.495,.585,.236,1.133-.757,.193-1.334-.257-2.026-.509-.216-.078-.528-.047-.707-.17-.268-.186-.346-.737-.567-1.02-.255-.329-.763-.795-1.178-.792-.582,.002-1.425,.871-1.886,.056,.319-1.297,1.831-.334,2.828-.792,.371-.17,.499-.642,.802-.85,.609-.417,1.6-.476,1.508-1.302-.046-.416-.531-.411-.801-.624-.369-.289-.651-1.308-1.178-1.358-.272-.026-.467,.25-.755,.283-.609,.069-1.288-.295-1.838,0-.256,.176-.083,.458-.283,.793-.164,.275-.552,.352-.707,.623-.181,.319-.144,.715-.377,.962-.387,.412-1.206,.478-1.696,.679-.219,.09-.495,.399-.707,.398-.389-.003-.556-.629-.99-.398-.038,.607,.533,.853,.895,1.133,.392,.303,.803,.605,.943,1.133-.383,.978-.995-.052-1.602-.056-.669-.006-1.645,1.53-2.215,.283,.142-.661,.748-.763,.895-1.416-.666,.136-1.245,.809-2.027,1.02-.329,.087-.649,.066-.943,.169-.564,.199-.958,.7-1.554,.964-.233,.103-.512,.071-.755,.169-.569,.229-1.251,.638-1.838,1.02-.6,.39-1.277,.801-1.65,1.19-.201,.209-.725,.952-.707,1.188,.024,.338,.552,.449,.565,.794-.012,.209-.306,.659-.094,.962,.193,.276,.579,.053,.989,.113,.72,.107,1.191,.822,1.744,1.19,.418,.277,1.038,.608,1.509,.679,.648,.098,1.372-.227,1.461,.396,.086,.599-.609,.814-.659,1.19,.349,.553-.237,.818-.236,1.303,.001,.393,.403,.982,.753,1.018,.475,.049,1.17-.562,1.368-1.133,.234-.679,.134-1.6,.565-2.095,2.196,.073,4.054-1.198,3.912-3.907-.014-.267-.141-.612-.094-.907,.069-.438,.695-.805,.612-1.359,.615-.227,.589-1.413,1.226-1.586,.533-.144,1.137,.454,1.838,.396,.229-.018,.525-.265,.755-.226,.461,.077,.738,.76,1.084,1.076,.306,.282,.628,.192,.707,.566-.091,.635-.463,.651-.425,1.246,.035,.519,.483,.913,.707,.964,.344,.077,.835-.145,1.178-.34,.631-.359,1.171-1.44,1.697-1.303,.415,.109,.74,1.695,.801,2.266,.066,.612-.069,1.08-.046,1.643,.061,.955,1.062,.858,1.555,1.359,.148,.152,.207,.539,.331,.737,.239,.383,.528,.383,.565,.792,.088,.978-.738,1.061-.661,2.152-.17,.423-.6,.398-.565,.962,.055,.894,1.124,.209,1.414,.907,.157,.375-.026,.654-.142,1.188,.365,.524,.363,1.359-.282,1.36-.392,0-.5-.506-.896-.623-.22-.066-.52-.053-.801-.113-.24-.052-.526-.137-.753-.17-.582-.083-1.211,.12-1.556-.283,.56-.895,1.306-1.778,2.027-2.549,.214-.23,.675-.387,.565-.849-.401-.423-.894,.026-1.272,.283-.397,.269-.871,.656-1.32,.737-.78,.139-1.814-.275-2.451,.226-.088,.428,.725,.262,.612,.907-.312,.061-.607,.091-.848-.17-.219-.237-.094-.593-.236-.737-.242-.24-1.15-.306-1.556-.226-.495,.097-.933,.453-.99,.962,.595,.335,1.576-.345,1.791,.51-.326,.705-1.094,1.093-.99,2.038,.041,.365,.401,.852,.661,.907,.26,.054,.407-.256,.659-.228,.266,.03,.206,.396,.519,.34,.454-.233,.705-.998,1.225-.963,.624,.91-.563,1.353-1.225,1.642-.755,.329-1.735,.503-2.31,.794-.301,.152-1.441,1.476-1.602,.452-.116-.738,.564-.525,.707-1.133-.73-.17-1.41,.378-2.074,.681-.947,.431-2.553,.704-2.782,1.982-.045,.256,.093,.735-.046,.905-.113,.137-.789,.162-1.085,.283-.454,.187-.851,.588-1.132,.679-.212,.07-.525,.05-.659,.114-.375,.174-.513,.784-.943,1.188-.176,.166-.567,.286-.707,.453-.244,.292-.276,1.023-.707,1.132-.274,.029-.496-.247-.755-.057-.031,.722,.212,1.705-.046,2.435-.558,.546-1.171,.934-1.885,1.416-.395,.267-.749,.336-1.226,.623-.338,.203-.648,.687-1.037,.963-.9,.636-1.987,1.39-1.979,3.002,.001,.349,.151,.725,.188,1.133,.023,.24-.024,.475,0,.737,.056,.592,.413,1.346,0,1.755-.635-.313-1.442-.419-1.885-.962-.121-.56,.245-1.02,.189-1.529-.045-.409-.524-1.137-.802-1.19-.287-.055-.551,.312-.848,.283-.352-.033-.68-.616-1.132-.679-.663-.093-1.151,.182-1.885,.057-.711,.456-.919,1.269-1.79,1.188-.307-.027-.588-.308-.943-.396-.384-.096-.968-.259-1.367-.226-.802,.064-1.384,.758-2.073,1.188-.608,.38-1.469,.854-1.65,1.643-.099,.425-.016,1.022-.142,1.416-.083,.259-.266,.489-.378,.735-.528,1.16-.966,2.693-.565,4.362,.059,.247,.584,1.643,.801,1.925,.243,.313,.958,.784,1.367,.793,.345,.008,.75-.21,1.084-.283,.388-.083,.874-.09,1.226-.226,1.019-.392,.818-2.048,1.838-2.605,.445-.242,.961-.291,1.744-.339,.249,.252,.365,.692,.331,1.076-.026,.289-.255,.551-.377,.963-.107,.362-.13,.785-.236,1.077-.141,.382-.454,.661-.565,1.02-.074,.233-.033,.523-.094,.735-.108,.373-.524,.636-.331,1.02,1.009,.482,2.23-.138,3.111,.057,.371,.082,1.138,.615,1.131,1.303-.005,.515-.331,.853-.377,1.416-.057,.709-.303,1.577-.33,2.151-.042,.939,1.147,2.561,1.979,2.548,.896-.014,1.419-1.071,2.498-.509,.358,.186,.737,.884,1.132,.849,.326-.029,.819-.715,1.037-1.19,.265-.579,.284-1.067,.753-1.359,.506-.315,.908-.163,1.556-.453,.289-.129,.54-.35,.801-.566,.229-.189,.469-.683,.755-.34,.376,.452-.461,.706-.141,1.19,.653,.416,.988-.774,1.462-.792,.151-.006,.674,.353,.942,.567,.368,.29,.493,.698,.895,.792,.258,.061,.674-.119,1.037-.057,.481,.083,.768,.579,1.132,.566,.444-.014,.657-.595,1.037-.679,.832-.183,1.141,.112,1.508,.737,.411,.086,.425-.571,.801-.339-.206,.493,.07,.721,.236,1.133,.107,.265,.089,.452,.189,.567,.225,.257,.659,.257,.989,.509,.348,.263,.544,.752,.943,1.303,.411,.563,1.101,1.147,1.65,1.188,.518,.04,.939-.176,1.368-.113,.975,.144,1.581,.729,2.262,1.36,.381,.352,.725,.596,.848,1.018,.086,.294,.044,.689,.142,1.02,.208,.705,1.064,1.045,.755,2.265,.141,.357,.459,.486,.801,.736,.274,.202,.505,.622,.801,.68,.191,.037,.4-.069,.565-.058,.536,.046,.904,.295,1.368,.511,.288,.133,.657,.186,.849,.342,.239,.193,.27,.845,.565,1.017,.193,.112,.622-.043,.943,0,.506,.071,1.193,.443,1.65,.455,.277,.007,.507-.138,.753-.114,1.155,.107,1.809,1.766,2.923,2.265,.345,.156,.893,.047,1.13,.17,.418,.217,.77,1.753,.801,2.434Zm-30.779-53.461c.49,.27,1.827,.465,1.981-.283-.197-.23-.837-.164-1.274-.113-.308,.038-.675,.116-.707,.396Zm17.299-22.541c.232,.034,.363-.054,.33-.339-.21-.178-.515,.055-.33,.339Zm-21.164,20.162c-.195-.276-1.252,.033-1.556,.283-.208,.173-.35,.595-.565,.907-.222,.322-.471,.57-.659,.849-.17,.252-1.125,1.906-.377,2.095,.319,.08,.975-.715,1.037-1.02,.213-1.038,.602-1.779,1.272-2.266,.388-.281,.786-.246,.849-.849Zm2.734,3.398c-.67-.286-1.289,.194-1.838,.283-.327,.053-.923-.08-.849,.509,.061,.48,.679,.306,1.037,.17,.745-.283,1.215-.526,1.649-.962Zm-1.791-3.285c-.014,.339,.207,.393,.189,.736-.458,.393-.216,1.709,.236,1.756,.479,.05,.726-1.454,1.366-1.586,.232-.049,.351,.159,.659,.113,.37-.35,.206-1.066-.188-1.19-.155-.049-.361,.137-.613,.114-.267-.024-.533-.317-.754-.34-.376-.039-.758,.185-.896,.396Zm-3.629-2.152c-.498,.163-.971,.177-1.085,.68,.446,.887,1.328-.194,1.979-.057,.33,.07,.523,.612,.849,.679,.222,.046,1.514-.125,1.603-.17,.939-.481-.186-1.961-.613-2.096-.764-.24-1.851,.674-2.734,.963Zm-2.593-19.708c.877,.855,2.205-.399,3.112,.396,.157-.122,.398-.286,.282-.566-.52-.293-1.4-.07-2.167-.17-.436-.739-1.164-.854-1.226,.341Zm-.613,15.404c.526-.023,.882-1.891,0-1.643-.59,.166-.733,1.675,0,1.643Zm-4.006-9.572c-.22-.212-.446-.498-.707-.509-.342-.014-.506,.349-.849,.567-.398,.253-.951,.315-.989,.736,.73,.172,1.387-.21,1.838-.396,.268-.112,.639-.054,.707-.398Zm-3.11-3.171c.65,.197,1.434-.361,2.167-.51,.301-.062,.61,.101,.802-.226-.225-1.247-1.66-.485-2.498-.396-.176,.355-.412,.638-.471,1.133Zm16.12,56.519c-.342,.19-.164,.918,.188,.851,.373-.073,.264-1.101-.188-.851Zm-32.947-45.589c-.239-.538-.876-.142-.896,.396,.067,.107,.145,.202,.236,.283,.288-.146,.561-.309,.661-.679Z"
              style="fill:#fff; opacity:.4;"></path>
        <g>
            <path d="M203.61,224.871c2.623,2.898,3.936,6.835,3.936,11.81,0,4.294-1.194,8.18-3.578,11.656-2.387,3.477-5.966,6.255-10.736,8.334-4.772,2.078-10.567,3.118-17.382,3.118-5.794,0-11.418-.716-16.87-2.147-5.455-1.431-9.885-3.338-13.292-5.725l6.646-14.929c3.204,2.114,6.918,3.818,11.145,5.112,4.225,1.295,8.384,1.943,12.474,1.943,7.771,0,11.656-1.943,11.656-5.828,0-2.046-1.108-3.562-3.323-4.55-2.216-.988-5.777-2.028-10.685-3.118-5.385-1.158-9.884-2.403-13.496-3.732-3.614-1.33-6.715-3.459-9.305-6.391-2.591-2.929-3.885-6.883-3.885-11.861,0-4.361,1.191-8.297,3.578-11.808,2.386-3.51,5.946-6.288,10.685-8.334,4.736-2.044,10.548-3.067,17.433-3.067,4.703,0,9.337,.528,13.905,1.584,4.566,1.058,8.588,2.607,12.065,4.653l-6.237,15.03c-6.817-3.681-13.429-5.521-19.836-5.521-4.023,0-6.953,.598-8.793,1.789-1.84,1.193-2.761,2.745-2.761,4.652s1.09,3.341,3.272,4.295c2.182,.954,5.691,1.942,10.532,2.965,5.452,1.159,9.969,2.402,13.547,3.731,3.578,1.33,6.68,3.444,9.305,6.34Zm33.279,4.754h31.798v-15.133h-31.798v-12.065h36.093v-15.643h-56.133v71.572h57.462v-15.643h-37.422v-13.088Zm112.641-27.02c-3.19-5.656-7.579-10.087-13.168-13.291-5.59-3.204-11.889-4.806-18.901-4.806s-13.311,1.602-18.9,4.806c-5.59,3.204-9.98,7.635-13.169,13.291-3.189,5.66-4.783,12.031-4.783,19.12s1.594,13.463,4.783,19.12c3.19,5.659,7.579,10.09,13.169,13.292,5.589,3.205,11.89,4.806,18.9,4.806s13.311-1.601,18.901-4.806c5.589-3.203,9.979-7.634,13.168-13.292,3.188-5.657,4.784-12.029,4.784-19.12s-1.596-13.46-4.784-19.12Z"
                  style="fill:#407BFF;"></path>
            <g>
                <path d="M294.22,192.254c-3.569,2.81-6.518,6.255-8.828,10.352-.999,1.773-1.822,3.623-2.508,5.535l-1.209,4.091c-.701,3.009-1.065,6.17-1.065,9.494,0,7.091,1.593,13.463,4.783,19.12,3.189,5.659,7.579,10.09,13.169,13.292l18.9-32.412-23.241-29.472Z"
                      style="opacity:.3;"></path>
                <path d="M294.22,192.254l23.241,29.472,1.483-37.217s-13.174-1.478-24.724,7.745Z"
                      style="fill:#fff; opacity:.2;"></path>
            </g>
        </g>
    </g>
    <g id="freepik--Lines--inject-6">
        <path d="M174.816,320.394h-1v-20.335h1v20.335ZM99.223,158.16h-25.101v-22.195h-1v23.195h26.101v-1Zm324.711-19.705h-24.256v1h23.256v16.135h1v-17.135Z"
              style="fill:#407BFF;"></path>
    </g>
    <g id="freepik--Tab_3--inject-6">
        <rect x="376.245" y="156.156" width="90.171" height="101.359" rx="4.936" ry="4.936"
              style="fill:#407BFF;"></rect>
        <rect x="376.245" y="156.156" width="90.171" height="101.359" rx="4.936" ry="4.936"
              style="fill:#fff; opacity:.5;"></rect>
        <path d="M380.871,156.156h80.999c2.509,0,4.546,2.037,4.546,4.546v10.963h-90.171v-10.882c0-2.554,2.073-4.627,4.627-4.627Z"
              style="fill:#407BFF;"></path>
        <path d="M463.03,165.041c0,1.87-1.515,3.386-3.385,3.386s-3.385-1.516-3.385-3.386,1.516-3.385,3.385-3.385,3.385,1.516,3.385,3.385Z"
              style="fill:#fff; opacity:.5;"></path>
        <path d="M453.409,165.041c0,1.87-1.515,3.386-3.385,3.386s-3.385-1.516-3.385-3.386,1.516-3.385,3.385-3.385,3.385,1.516,3.385,3.385Z"
              style="fill:#fff; opacity:.5;"></path>
        <path d="M443.787,165.041c0,1.87-1.515,3.386-3.385,3.386s-3.385-1.516-3.385-3.386,1.516-3.385,3.385-3.385,3.385,1.516,3.385,3.385Z"
              style="fill:#fff; opacity:.5;"></path>
        <rect x="400.046" y="184.629" width="54.249" height="3.157" style="fill:#fff; opacity:.6;"></rect>
        <rect x="400.891" y="191.459" width="38.817" height="3.157" style="fill:#263238; opacity:.6;"></rect>
        <rect x="385.608" y="184.629" width="10.672" height="3.157" style="fill:#407BFF;"></rect>
        <rect x="400.046" y="199.046" width="54.249" height="3.157" style="fill:#407BFF;"></rect>
        <rect x="385.608" y="199.046" width="10.672" height="3.157" style="fill:#407BFF;"></rect>
        <rect x="400.046" y="229.102" width="54.249" height="3.157" style="fill:#407BFF;"></rect>
        <rect x="400.046" y="238.458" width="10.672" height="3.157" style="fill:#fff; opacity:.6;"></rect>
        <rect x="400.046" y="206.647" width="54.249" height="3.157" style="fill:#407BFF;"></rect>
        <rect x="385.608" y="206.647" width="10.672" height="3.157" style="fill:#263238; opacity:.6;"></rect>
        <rect x="400.046" y="213.275" width="38.817" height="3.157" style="fill:#fff; opacity:.6;"></rect>
        <rect x="400.046" y="220.138" width="19.408" height="3.157" style="fill:#263238; opacity:.6;"></rect>
    </g>
    <g id="freepik--Tab_2--inject-6">
        <rect x="154.437" y="318.899" width="78.051" height="65.632" rx="4.936" ry="4.936" style="fill:#407BFF;"></rect>
        <rect x="154.437" y="318.899" width="78.051" height="65.632" rx="4.936" ry="4.936"
              style="fill:#fff; opacity:.5;"></rect>
        <path d="M159.064,318.899h68.879c2.509,0,4.546,2.037,4.546,4.546v6.899h-78.051v-6.818c0-2.554,2.073-4.627,4.627-4.627Z"
              style="fill:#407BFF;"></path>
        <path d="M228.08,325.456c0,1.38-1.118,2.498-2.498,2.498s-2.498-1.119-2.498-2.498,1.118-2.498,2.498-2.498,2.498,1.119,2.498,2.498Zm-9.598-2.498c-1.38,0-2.498,1.119-2.498,2.498s1.118,2.498,2.498,2.498,2.498-1.119,2.498-2.498-1.118-2.498-2.498-2.498Zm-7.1,0c-1.38,0-2.498,1.119-2.498,2.498s1.118,2.498,2.498,2.498,2.498-1.119,2.498-2.498-1.118-2.498-2.498-2.498Z"
              style="fill:#fff; opacity:.5;"></path>
        <path d="M192.235,357.255l6.769-18.597c2.522,.918,4.83,2.339,6.786,4.177,1.955,1.838,3.516,4.055,4.588,6.515l-18.143,7.905Z"
              style="fill:#f5f5f5;"></path>
        <path d="M192.235,357.255l5.768,18.931c-1.87,.57-3.813,.859-5.768,.859-10.857,0-19.79-8.934-19.79-19.79s8.934-19.79,19.79-19.79c2.277,0,4.537,.393,6.681,1.162l-6.681,18.629Z"
              style="fill:#407BFF;"></path>
        <path d="M192.235,357.255l18.181-7.818c1.062,2.47,1.61,5.13,1.61,7.818,0,8.655-5.678,16.353-13.947,18.908l-5.843-18.908Z"
              style="fill:#407BFF;"></path>
        <path d="M192.235,357.255l18.181-7.818c1.062,2.47,1.61,5.13,1.61,7.818,0,8.655-5.678,16.353-13.947,18.908l-5.843-18.908Z"
              style="opacity:.3;"></path>
    </g>
    <g id="freepik--Tab_1--inject-6">
        <rect x="26.968" y="74.269" width="112.082" height="66.519" rx="4.095" ry="4.095" style="fill:#407BFF;"></rect>
        <rect x="26.968" y="74.269" width="112.082" height="66.519" rx="4.095" ry="4.095"
              style="fill:#fff; opacity:.5;"></rect>
        <path d="M43.987,111.402l-.335-.371c.477-.429,13.466-13.253,13.597-13.383l.126-.125,12.923,6.36,12.731-14.979,12.985,18.711,12.415-8.102,.273,.419-12.822,8.367-12.892-18.576-12.562,14.781-12.954-6.376c-1.43,1.411-13.022,12.855-13.487,13.273Z"
              style="fill:#263238;"></path>
        <path d="M47.872,130.489h-6.066v-13.44h6.066v13.44Zm12.489-22.322h-6.066v22.322h6.066v-22.322Zm12.727,2.245h-6.066v20.077h6.066v-20.077Zm12.955-12.585h-6.066v32.662h6.066v-32.662Zm13.093,17.319h-6.066v15.343h6.066v-15.343Zm12.964-7.692h-6.066v23.035h6.066v-23.035Zm13.419,7.692h-6.066v15.343h6.066v-15.343Z"
              style="fill:#407BFF;"></path>
        <path d="M60.361,130.489h-6.066v-22.322h6.066v22.322Zm25.681-32.662h-6.066v32.662h6.066v-32.662Zm26.058,9.627h-6.066v23.035h6.066v-23.035Z"
              style="opacity:.3;"></path>
        <rect x="115.276" y="95.627" width=".501" height="15.922" transform="translate(-31.12 154.3) rotate(-60.957)"
              style="fill:#263238;"></rect>
        <path d="M48.098,109.695c0,1.8-1.459,3.259-3.259,3.259s-3.259-1.459-3.259-3.259,1.459-3.259,3.259-3.259,3.259,1.459,3.259,3.259Zm9.23-15.127c-1.8,0-3.259,1.459-3.259,3.259s1.459,3.259,3.259,3.259,3.259-1.459,3.259-3.259-1.459-3.259-3.259-3.259Zm13.035,5.35c-1.8,0-3.259,1.459-3.259,3.259s1.459,3.259,3.259,3.259,3.259-1.459,3.259-3.259-1.459-3.259-3.259-3.259Zm12.646-13.863c-1.8,0-3.259,1.459-3.259,3.259s1.459,3.259,3.259,3.259,3.259-1.459,3.259-3.259-1.459-3.259-3.259-3.259Zm12.938,18.644c-1.8,0-3.259,1.459-3.259,3.259s1.459,3.259,3.259,3.259,3.259-1.459,3.259-3.259-1.459-3.259-3.259-3.259Zm13.345-8.234c-1.8,0-3.259,1.459-3.259,3.259s1.459,3.259,3.259,3.259,3.259-1.459,3.259-3.259-1.459-3.259-3.259-3.259Zm13.193,7.73c-1.8,0-3.259,1.459-3.259,3.259s1.459,3.259,3.259,3.259,3.259-1.459,3.259-3.259-1.459-3.259-3.259-3.259Z"
              style="fill:#407BFF;"></path>
    </g>
    <g id="freepik--Character_2--inject-6">
        <g>
            <polygon points="382.947 377.719 380.834 456.656 383.818 456.656 387.299 377.719 382.947 377.719"
                     style="fill:#263238;"></polygon>
            <polygon
                    points="399.244 379.515 425.955 379.515 434.409 456.656 437.87 456.656 430.079 374.031 399.244 374.853 399.244 379.515"
                    style="fill:#263238;"></polygon>
            <polygon
                    points="399.244 379.515 425.955 379.515 434.409 456.656 437.87 456.656 430.079 374.031 399.244 374.853 399.244 379.515"
                    style="fill:#fff; isolation:isolate; opacity:.2;"></polygon>
            <polygon
                    points="397.296 374.853 359.445 374.853 357.497 374.853 349.178 456.656 351.058 456.656 351.427 453.688 351.125 456.656 353.006 456.656 362.57 379.704 393.693 379.704 393.941 456.656 395.889 456.656 396.039 456.656 397.986 456.656 399.244 374.853 397.296 374.853"
                    style="fill:#263238;"></polygon>
            <polygon
                    points="397.296 374.853 359.445 374.853 357.497 374.853 349.178 456.656 351.058 456.656 351.427 453.688 351.125 456.656 353.006 456.656 362.57 379.704 393.693 379.704 393.941 456.656 395.889 456.656 396.039 456.656 397.986 456.656 399.244 374.853 397.296 374.853"
                    style="fill:#fff; isolation:isolate; opacity:.2;"></polygon>
            <path d="M383.569,366.443l8.381-58.486c.452-4.271,3.629-7.484,7.4-7.484h39.01c.979,0,1.773,.906,1.773,2.023v61.703c0,8.581-6.098,15.538-13.62,15.538h-78.025c-.471,0-.853-.436-.853-.973h0c0-3.845,2.732-6.963,6.103-6.963h24.535c2.699,0,4.973-2.3,5.297-5.357Z"
                  style="fill:#263238;"></path>
            <path d="M440.133,302.497v61.694c0,8.591-6.098,15.548-13.618,15.548h-78.023c-.474,0-.865-.447-.865-.975,0-1.927,.69-3.667,1.793-4.924,1.102-1.269,2.637-2.045,4.316-2.045h24.538c.546,0,1.082-.094,1.586-.282,1.957-.693,3.451-2.644,3.708-5.077l8.385-58.474c.443-4.278,3.626-7.486,7.396-7.486h39.012c.659,0,1.236,.411,1.535,1.022,.144,.294,.237,.623,.237,.999Z"
                  style="fill:#fff; opacity:.5;"></path>
            <path d="M432.922,300.476v55.5c0,8.579-6.098,15.536-13.618,15.536h-39.444c1.957-.693,3.451-2.644,3.708-5.077l8.385-58.474c.443-4.278,3.626-7.486,7.396-7.486h33.572Z"
                  style="fill:#fff; opacity:.3;"></path>
            <polygon points="385.832 427.912 389.425 448.627 380.905 452.061 373.834 430.329 385.832 427.912"
                     style="fill:#407BFF;"></polygon>
            <path d="M386.781,446.928c-.574,1.557-1.954,2.308-3.438,2.017l-.987-1.395c-.851-1.2-2.04-1.637-3.345-.751-.64,.433-1.192,1.666-1.128,3.195,.114,2.74-.976,4.506-.976,4.506,0,0-4.657,6.259-6.544,8.079-1.126,1.086-2.596,2.607-2.828,4.52-.066,.547-.067,1.155,.009,1.834,.063,.557,.604,1.614,.616,1.637l15.782-8.021s1.133-1.757,1.83-2.079c1.239-.574,2.323,.209,2.323,.209l5.76-2.874s-.339-.942-.836-2.311h.001c-.224-.618-.479-1.321-.747-2.065-1.154-3.189-2.493-7.267-2.827-8.167-.585-1.576-2.665,1.668-2.665,1.668Z"
                  style="fill:#263238;"></path>
            <path d="M374.324,457.727c.039-.1,.145-.162,.253-.152,.496,.045,.979,.217,1.402,.524,.223,.162-.015,.544-.24,.381-.376-.273-.8-.427-1.233-.467-.145-.013-.235-.148-.183-.282l.002-.004Z"
                  style="fill:#407BFF;"></path>
            <path d="M375.209,456.453c.039-.1,.145-.162,.253-.152,.496,.045,.979,.217,1.402,.524,.223,.162-.015,.544-.24,.381-.376-.273-.8-.426-1.233-.467-.145-.013-.235-.148-.183-.282l.002-.004Z"
                  style="fill:#407BFF;"></path>
            <path d="M376.154,455.204c.039-.1,.145-.162,.253-.152,.496,.045,.979,.217,1.402,.524,.223,.162-.015,.544-.24,.381-.376-.273-.8-.426-1.233-.467-.145-.014-.235-.148-.183-.282l.002-.004Z"
                  style="fill:#407BFF;"></path>
            <path d="M367.515,468.091c.004,.283,.018,.576,.053,.888,.063,.558,.604,1.614,.616,1.637l15.782-8.021s1.133-1.757,1.83-2.079c1.239-.575,2.323,.209,2.323,.209l5.761-2.874s-.339-.942-.836-2.311h.001l-.125-.345-25.405,12.897Z"
                  style="fill:#fff; isolation:isolate; opacity:.2;"></path>
            <path d="M376.593,455.476l-.227-.041c-.425-.092-1.851-.42-2.367-.81-.528-.399-.869-.955-.936-1.525-.038-.323,.035-.735,.355-.923,.312-.185,.684-.062,.94,.073,.515,.271,.969,.717,1.35,1.326,.332,.53,.567,1.115,.796,1.681l.088,.219Zm-2.818-3.141c-.08,0-.158,.016-.229,.057-.217,.128-.262,.445-.234,.679,.059,.503,.364,.997,.838,1.355,.345,.259,1.239,.528,2.038,.713-.198-.488-.411-.983-.69-1.43-.357-.571-.779-.988-1.254-1.238-.112-.059-.294-.136-.469-.136Z"
                  style="fill:#407BFF;"></path>
            <path d="M376.351,455.521l-.016-.234c-.04-.611-.083-1.243-.014-1.869,.077-.712,.292-1.312,.639-1.781,.243-.329,.532-.495,.814-.476,.369,.03,.615,.369,.722,.677,.189,.544,.123,1.193-.18,1.781-.294,.572-1.437,1.49-1.779,1.758l-.187,.145Zm1.372-4.112c-.247,0-.456,.233-.562,.376-.32,.434-.52,.992-.592,1.66-.058,.524-.034,1.062,0,1.587,.64-.514,1.328-1.146,1.524-1.527,.272-.528,.333-1.105,.166-1.585-.077-.223-.256-.489-.505-.509-.011,0-.021-.002-.032-.002Z"
                  style="fill:#407BFF;"></path>
            <polygon points="358.475 423.484 362.069 444.199 353.549 447.633 346.478 425.901 358.475 423.484"
                     style="fill:#407BFF;"></polygon>
            <path d="M359.425,442.5c-.574,1.557-1.955,2.308-3.438,2.017l-.987-1.395c-.851-1.2-2.039-1.637-3.345-.751-.64,.433-1.192,1.666-1.128,3.195,.114,2.74-.976,4.506-.976,4.506,0,0-4.657,6.259-6.544,8.079-1.126,1.086-2.596,2.607-2.828,4.52-.066,.547-.067,1.155,.009,1.834,.063,.558,.604,1.614,.615,1.637l15.782-8.021s1.134-1.757,1.83-2.079c1.239-.575,2.323,.209,2.323,.209l5.761-2.874s-.339-.942-.836-2.311h.001c-.224-.618-.479-1.321-.747-2.065-1.154-3.189-2.493-7.267-2.827-8.167-.585-1.576-2.665,1.668-2.665,1.668Z"
                  style="fill:#263238;"></path>
            <path d="M346.967,453.3c.039-.1,.145-.162,.253-.152,.496,.045,.979,.217,1.402,.524,.223,.162-.015,.544-.24,.381-.376-.273-.8-.427-1.234-.467-.145-.013-.235-.148-.183-.282l.002-.004Z"
                  style="fill:#407BFF;"></path>
            <path d="M347.852,452.025c.039-.1,.145-.162,.253-.152,.496,.045,.979,.217,1.402,.524,.223,.162-.015,.544-.24,.381-.376-.273-.8-.426-1.234-.467-.145-.013-.235-.148-.183-.282l.002-.004Z"
                  style="fill:#407BFF;"></path>
            <path d="M348.798,450.776c.039-.1,.145-.162,.253-.152,.496,.045,.979,.217,1.402,.524,.223,.162-.015,.544-.24,.381-.376-.273-.8-.426-1.233-.467-.145-.014-.235-.148-.183-.282l.002-.004Z"
                  style="fill:#407BFF;"></path>
            <path d="M340.158,463.663c.004,.283,.018,.576,.053,.888,.063,.557,.604,1.614,.616,1.637l15.782-8.021s1.133-1.757,1.83-2.079c1.239-.575,2.323,.209,2.323,.209l5.761-2.874s-.34-.942-.836-2.311h.001l-.125-.345-25.405,12.897Z"
                  style="fill:#fff; isolation:isolate; opacity:.2;"></path>
            <path d="M349.24,451.057l-.23-.05c-.425-.092-1.852-.421-2.367-.81-.528-.399-.869-.955-.936-1.525-.037-.324,.037-.736,.355-.923,.312-.185,.684-.062,.94,.073,.517,.271,.97,.718,1.351,1.326,.336,.539,.571,1.124,.799,1.689l.088,.219Zm-2.822-3.149c-.08,0-.158,.016-.229,.057-.216,.127-.263,.434-.234,.679,.059,.503,.364,.997,.838,1.355,.344,.259,1.239,.528,2.038,.713-.196-.485-.408-.979-.69-1.43-.355-.571-.777-.987-1.254-1.238-.112-.059-.294-.136-.469-.136Z"
                  style="fill:#407BFF;"></path>
            <path d="M348.994,451.094l-.016-.234c-.04-.611-.083-1.243-.014-1.869,.078-.714,.293-1.313,.639-1.781,.242-.329,.534-.49,.814-.476,.369,.03,.615,.369,.722,.677,.188,.543,.124,1.192-.179,1.781-.296,.573-1.438,1.49-1.78,1.758l-.187,.145Zm1.372-4.112c-.247,0-.456,.233-.562,.376-.319,.432-.518,.99-.592,1.66-.058,.524-.034,1.062,0,1.587,.64-.514,1.329-1.146,1.525-1.528,.271-.527,.332-1.104,.165-1.584-.077-.223-.256-.489-.505-.509-.011,0-.021-.002-.032-.002Z"
                  style="fill:#407BFF;"></path>
            <path d="M427.114,334.641s-20.526,20.067-31.191,30.04c-10.665,9.973-44.242,8.486-44.242,8.486l12.668,64.656-17.399,2.104s-16.409-47.978-22.783-73.629c-.924-3.72,.8-9.332,2.483-11.701,7.033-9.897,59.24-11.575,59.24-11.575l1.147-6.97,40.075-1.409Z"
                  style="fill:#263238;"></path>
            <path d="M354.233,386.189s-9.193-16.19-11.153-22.671c-1.959-6.481-1.357-8.897,3.467-10.854,4.823-1.958,38.984-6.052,38.984-6.052l.545-2.824,7.045,7.693s-40.394,2.698-39.942,9.33,1.054,25.378,1.054,25.378Z"
                  style="isolation:isolate; opacity:.2;"></path>
            <path d="M427.114,334.641s4.22,24.935-4.386,31.319c-8.223,6.1-42.975,9.733-42.975,9.733l10.665,65.009-17.035,2.994s-16.574-49.564-22.948-75.215c-.924-3.72-.129-8.514,1.555-10.882,7.033-9.897,58.777-12.912,58.777-12.912l16.347-10.046Z"
                  style="fill:#263238;"></path>
            <path d="M379.753,375.694s-2.717-3.954-4.773-5.579c0,0,5.894,1.959,7.011,5.446l-2.238,.133Z"
                  style="isolation:isolate; opacity:.2;"></path>
            <path d="M345.303,335.211l3.737,5.552s23.482-7.939,26.25-10.599,6.21-26.583,6.21-26.583v-16.954l.279-12.279s-9.731,2.363-10.51,10.187c-.231,2.317-4.396,36.744-4.396,36.744l-21.571,13.932Z"
                  style="fill:#e9b376;"></path>
            <path d="M352.989,349.116h34.214v.011c-.009,1.306-1.467,2.36-3.258,2.354h-55.733c-1.777-.012-3.206-1.07-3.197-2.365h27.974Z"
                  style="fill:#263238;"></path>
            <path d="M327.699,351.348h31.257c.539-.004,.973-.357,.969-.79,0-.081-.017-.162-.049-.239l-13.905-31.878c-.351-.91-1.398-1.533-2.585-1.537h-31.276c-.529,0-.957,.344-.957,.769,0,.089,.019,.177,.057,.261l13.905,31.878c.356,.907,1.4,1.528,2.586,1.537Z"
                  style="fill:#263238;"></path>
            <path d="M312.109,316.903h31.276c1.188,.004,2.234,.627,2.586,1.537l13.38,30.676h27.852v.011c-.009,1.306-1.467,2.36-3.258,2.354h-55.733c-.563-.004-1.084-.122-1.542-.311-.727-.245-1.309-.73-1.556-1.36l-13.905-31.878c-.038-.084-.057-.172-.057-.261,0-.425,.428-.769,.957-.769Z"
                  style="fill:#407BFF;"></path>
            <path d="M330.893,333.874c.675,1.53,2.045,2.58,3.065,2.367,1.021-.214,1.293-1.608,.637-3.142-.655-1.534-2.04-2.56-3.061-2.347-1.021,.214-1.325,1.552-.641,3.122Z"
                  style="fill:#fff;"></path>
            <path d="M345.971,318.44l13.38,30.676h-1.449l-14.517-32.213c1.188,.004,2.234,.627,2.586,1.537Z"></path>
            <path d="M312.109,316.903h31.276c1.188,.004,2.234,.627,2.586,1.537l13.38,30.676h27.852v.011c-.009,1.306-1.467,2.36-3.258,2.354h-55.733c-.563-.004-1.084-.122-1.542-.311-.727-.245-1.309-.73-1.556-1.36l-13.905-31.878c-.038-.084-.057-.172-.057-.261,0-.425,.428-.769,.957-.769Z"
                  style="fill:#fff; opacity:.5;"></path>
            <path d="M383.329,343.114s-5.435-6.538-3.689-7.806l.633-60.504,1.506-.456,12.296-2.814,12.7-2.738,6.667,1.385,11.738,12.943s1.654,31.573,1.745,33.007c.112,1.757,.95,24.632,.95,24.632-20.108,4.406-44.875,3.907-44.547,2.352Z"
                  style="fill:#407BFF;"></path>
            <path d="M389.898,272.589l5.125,7.668,9.413-11.606s-2.508-1.944-4.624-3.754c-1.68-1.438-6.219-7.177-6.219-7.177l-1.244,1.095-7.911,6.828s5.647,3.221,5.51,4.428c.22,1.045,.463,2.111-.118,2.518"
                  style="fill:#e9b376;"></path>
            <path d="M389.941,270.071c.218,1.172,.342,1.406-.043,2.518,5.921-1.244,3.09-13.737,3.09-13.737h-.647l-7.911,6.829s5.684,3.246,5.51,4.391Z"
                  style="isolation:isolate; opacity:.2;"></path>
            <path d="M369.157,246.635c-.81,3.375,.231,10.12,4.692,7.594,4.461-2.526-3.299-13.395-4.692-7.594Z"
                  style="fill:#263238;"></path>
            <path d="M393.19,249.459c1.097,8.454,1.886,13.199-1.523,18.263-5.128,7.617-15.935,5.829-19.545-2.149-3.25-7.182-4.498-19.8,3.071-24.625,7.457-4.754,16.9,.058,17.997,8.511Z"
                  style="fill:#e9b376;"></path>
            <path d="M392.695,238.096c-2.034-4.383-8.48-5.774-11.249-2.8-.414,.444,3.468,.994,3.024,.923l1.562,6.737c.474-.206,1.559,.186,2.36,1.629,0,0,.477,9.082,4.821,12.091,8.232-5.91,6.052-17.837-.52-18.579Z"
                  style="fill:#263238;"></path>
            <path d="M397.832,255.788c-.253,2.28-1.542,4.221-3.041,5.364-2.255,1.719-4.453-.049-4.724-2.726-.244-2.41,.635-6.209,3.33-6.876,2.655-.657,4.725,1.632,4.435,4.238Z"
                  style="fill:#e9b376;"></path>
            <path d="M381.697,254.176c.165,.855-.156,1.631-.717,1.733-.561,.102-1.149-.508-1.314-1.363-.165-.855,.156-1.631,.717-1.733,.561-.102,1.149,.508,1.314,1.363Z"
                  style="fill:#263238;"></path>
            <path d="M373.344,255.959c.165,.855-.156,1.631-.717,1.733-.561,.102-1.149-.508-1.314-1.363-.165-.855,.156-1.631,.717-1.733,.561-.102,1.149,.508,1.314,1.363Z"
                  style="fill:#263238;"></path>
            <path d="M375.981,254.959s-1.888,4.77-2.422,6.667c1.397,.846,3.351-.045,3.351-.045l-.93-6.622Z"
                  style="fill:#d58745;"></path>
            <path d="M382.672,249.237c-.116,.082-.272,.101-.411,.036-1.654-.772-2.943-.003-2.956,.004-.192,.117-.444,.058-.564-.132-.119-.19-.059-.441,.131-.558,.068-.042,1.683-1.005,3.735-.047,.205,.096,.293,.337,.198,.54-.031,.066-.077,.119-.133,.158Z"
                  style="fill:#263238;"></path>
            <path d="M369.54,254.083c-.077-.008-.152-.039-.217-.093-.173-.145-.199-.402-.057-.575,1.429-1.735,3.29-1.519,3.375-1.52,.223,.027,.385,.23,.36,.454-.024,.223-.223,.382-.445,.358-.077-.012-1.513-.16-2.66,1.233-.09,.109-.225,.158-.356,.144Z"
                  style="fill:#263238;"></path>
            <path d="M392.373,238.629c-.057,0-.113-.019-.159-.058-.106-.088-.121-.246-.033-.352,1.051-1.266,2.395-2.241,3.596-2.608,.133-.039,.271,.034,.312,.166,.04,.132-.034,.272-.166,.312-1.096,.334-2.382,1.272-3.357,2.449-.05,.06-.121,.09-.192,.09Z"
                  style="fill:#263238;"></path>
            <path d="M392.502,238.498c-.025,0-.052-.004-.077-.012-.131-.042-.203-.184-.161-.315,.493-1.52,.401-3.228-.253-4.686-.056-.126,0-.274,.126-.33,.126-.058,.274,0,.331,.126,.703,1.57,.803,3.409,.272,5.044-.035,.105-.133,.173-.238,.173Z"
                  style="fill:#263238;"></path>
            <path d="M392.146,257.334c-.13,0-.239-.1-.249-.23-.061-.78,.085-1.565,.421-2.272,.228-.479,.646-1.119,1.346-1.441,.69-.317,1.51-.203,1.992,.279,.098,.098,.098,.256,0,.354-.099,.098-.257,.098-.354,0-.333-.333-.935-.407-1.43-.179-.563,.26-.911,.797-1.104,1.202-.298,.628-.428,1.326-.374,2.019,.011,.138-.092,.258-.229,.269h-.02Z"
                  style="opacity:.2;"></path>
            <path d="M379.005,263.578h0c1.948-.497,3.535-1.905,4.261-3.78,.039-.11-.018-.231-.128-.27l-.014-.004c-.104-.037-.217,.018-.254,.122l-.004,.014h0c-.693,1.726-2.16,3.024-3.958,3.502-.102,.04-.152,.156-.112,.258l.002,.006h0c.04,.102,.156,.153,.258,.112l.006-.002-.058,.043Z"
                  style="fill:#263238;"></path>
            <path d="M387.71,272.991c.162-.242,2.42-1.853,2.42-1.853l4.506,3.558,6.478-8.976,5.662,3.075-11.963,15.05-7.102-10.855Z"
                  style="fill:#407BFF;"></path>
            <path d="M394.844,344.038c-.104,0-.201-.065-.236-.169-2.627-7.673-2.284-16.315-1.953-24.675,.119-3.007,.243-6.117,.216-9.073-.088-9.727,.383-20.513,1.482-33.945,.012-.138,.138-.246,.27-.229,.138,.011,.24,.132,.229,.27-1.098,13.417-1.568,24.188-1.48,33.9,.027,2.968-.097,6.084-.216,9.098-.33,8.312-.671,16.908,1.926,24.492,.045,.131-.024,.272-.155,.317-.027,.01-.055,.014-.081,.014Z"
                  style="opacity:.1;"></path>
            <polygon
                    points="412.961 312.034 407.267 312.58 409.217 288.366 410.621 309.059 426.58 309.722 412.961 312.034"
                    style="isolation:isolate; opacity:.2;"></polygon>
            <path d="M387.71,272.991c.121,.184,2.749,5.39,3.857,7.586,.185,.367,.717,.335,.859-.05l2.01-5.436-2.478,4.225-4.248-6.326Z"
                  style="isolation:isolate; opacity:.2;"></path>
            <path d="M394.844,274.783c.166,.166,4.608,4.937,4.608,4.937l6.527-10.924-5.577,12.449c-.258,.575-1.051,.632-1.389,.101l-4.169-6.562Z"
                  style="isolation:isolate; opacity:.2;"></path>
            <path d="M412.998,299.098s-.035,17.465-.073,17.652c-.037,.186-30.448,12.892-30.448,12.892,0,.454,4.52,5.734,4.52,5.734,0,0,33.174-4.357,36.919-10.011,3.197-4.826,3.698-26.494,3.698-26.494l-14.617,.227Z"
                  style="fill:#e9b376;"></path>
            <path d="M413.443,270.181c12.115,1.02,15.086,10.043,14.865,23.778-.213,13.226,.11,16.16,.11,16.16l-18.172-.397s-.297-23.6-.297-25.876,3.494-13.665,3.494-13.665Z"
                  style="fill:#407BFF;"></path>
            <path d="M382.107,315.396l-16.651-4.188s4.563-23.692,5.343-27.66c.885-4.499,6.33-7.907,10.98-9.201l3.916,15.225-3.589,25.824Z"
                  style="fill:#407BFF;"></path>
            <path d="M379.641,314.776c-.176-.044-2.687-24.175-2.687-24.175l-1.378,23.153,4.064,1.022Z"
                  style="isolation:isolate; opacity:.2;"></path>
            <path d="M366.515,346.433c.152-1.551,3.078-8.376,4.581-10.644,1.503-2.269,11.382-6.147,11.382-6.147l5.796,4.188s-.008,2.42-2.057,4.176c-1.181,1.013-5.169,2.035-5.169,2.035,0,0,.331,1.233,.339,2.614,.009,1.53-.303,3.417-1.562,3.358-1.258-.059-1.722-4.111-1.782-4.696,.058,.593,.408,4.741-1.276,4.886-1.625,.14-1.893-4.188-1.893-4.188,0,0-.085,2.017-.136,3.047-.051,1.03-1.085,1.927-2.04,.781-1.107-1.329-1.205-3.621-1.205-3.621,0,0-.876,1.341-2.187,4.265-.944,2.104-2.919,1.257-2.79-.055Z"
                  style="fill:#e9b376;"></path>
            <path d="M378.096,342.18c-.133,0-.243-.104-.25-.237-.038-.779-.077-1.585,.033-2.382,.127-.922,.438-1.684,.926-2.264,.088-.106,.248-.119,.352-.031,.106,.089,.12,.246,.031,.352-.426,.508-.699,1.185-.812,2.012-.104,.751-.066,1.532-.029,2.288,.007,.139-.1,.256-.237,.263h-.013Z"
                  style="opacity:.1;"></path>
            <path d="M374.803,342.729c-.133,0-.243-.104-.25-.237-.038-.779-.077-1.585,.032-2.382,.129-.924,.44-1.686,.927-2.265,.089-.104,.247-.118,.353-.03,.105,.089,.119,.246,.03,.353-.425,.506-.698,1.183-.813,2.011-.104,.751-.065,1.532-.028,2.288,.007,.139-.1,.256-.237,.263h-.013Z"
                  style="opacity:.1;"></path>
            <path d="M371.522,342.441c-.133,0-.243-.104-.25-.237-.038-.779-.077-1.585,.033-2.382,.127-.922,.439-1.684,.927-2.265,.09-.104,.247-.117,.353-.03,.105,.089,.119,.246,.03,.353-.42,.5-.701,1.195-.813,2.011-.104,.751-.066,1.532-.029,2.288,.007,.139-.1,.256-.237,.263h-.013Z"
                  style="opacity:.1;"></path>
            <path d="M390.865,235.09c-.771-.968-1.993-1.463-3.214-1.667-1.645-.275-3.354-.158-4.946,.338-1.829,.57-3.509,1.631-5.401,1.925-.23,.036-.496,.05-.665-.11-.119-.112-.159-.281-.209-.436-.329-1.027-1.364-1.785-2.442-1.787-1.079-.003-2.117,.75-2.451,1.775-1.037-1.622-3.507-1.809-5.148-.801-1.64,1.007-2.586,2.142-3.129,3.989-.188,.64-.272,2.053-.032,3.109,.479,2.109,1.633,3.406,3.482,4.528,2.489,1.51,5.432,2.551,8.296,2.028,3.82-.698,6.724-3.991,10.498-4.906,1.427-.346,3.119-.257,4.114,.823l3.077-5.801c0-.981-.95-1.903-1.829-3.006Z"
                  style="fill:#263238;"></path>
        </g>
    </g>
    <g id="freepik--Character_1--inject-6">
        <g>
            <path d="M74.575,203.045c.968,4.839,3.174,14.516-.174,17.758,0,0,1.345,4.839,10.287,4.839,9.823,0,4.665-4.839,4.665-4.839-5.371-1.278-5.265-5.255-4.345-8.99l-10.432-8.768Z"
                  style="fill:#b97964;"></path>
            <path d="M94.819,194.168c-.119-.001-.233-.048-.318-.132-.167-.171-.167-.443,0-.614,1.002-.97,2.407-1.406,3.782-1.173,.23,.053,.374,.282,.321,.512l-.003,.014c-.048,.231-.275,.379-.506,.331l-.009-.002c-1.092-.193-2.209,.159-2.993,.943-.071,.076-.17,.119-.274,.121Z"
                  style="fill:#263238;"></path>
            <path d="M96.157,199.77c.261,1.801,.77,3.557,1.513,5.218-.87,.359-1.855,.31-2.686-.132l1.173-5.087Z"
                  style="fill:#a24e3f;"></path>
            <path d="M95.784,198.378c-.164,.724,.088,1.403,.559,1.513,.471,.11,.987-.384,1.096-1.096s-.077-1.392-.548-1.513-.932,.373-1.107,1.096Z"
                  style="fill:#263238;"></path>
            <path d="M96.738,197.26l1.842-.088s-1.195,1.151-1.842,.088Z" style="fill:#263238;"></path>
            <path d="M72.136,190.156c-1.502,9.001-2.324,12.772,1.096,18.385,5.153,8.431,16.511,8.376,20.655,0,3.738-7.51,5.558-20.962-2.291-26.542-5.528-4.001-13.252-2.762-17.253,2.766-1.155,1.595-1.911,3.444-2.207,5.391Z"
                  style="fill:#b97964;"></path>
            <path d="M83.197,177.742c7.509-3.085,15.35-1.016,16.106,6.789,.756,7.806-8.035,15.239-8.035,15.239l-8.071-22.028Z"
                  style="fill:#263238;"></path>
            <path d="M86.816,198.005c-.206,1.757,.287,3.525,1.37,4.923,1.458,1.831,3.541,.866,4.276-1.217,.669-1.875,.702-5.098-1.305-6.183-1.464-.754-3.262-.177-4.016,1.287-.19,.37-.301,.775-.325,1.191Z"
                  style="fill:#b97964;"></path>
            <path d="M90.515,202.524c-.056,0-.111-.019-.158-.056-.929-.756-1.491-1.969-1.467-3.166,.009-.491,.114-.88,.32-1.19,.275-.414,.736-.646,1.174-.589,.137,.018,.234,.143,.216,.28-.018,.137-.149,.236-.28,.216-.251-.038-.526,.117-.695,.37-.152,.228-.229,.529-.236,.922-.021,1.046,.471,2.107,1.282,2.769,.107,.087,.124,.245,.036,.352-.049,.061-.122,.092-.194,.092Z"
                  style="opacity:.3;"></path>
            <path d="M64.794,241.767c-.455-.014-3.605,20.048-3.394,20.637,.777,2.17,23.94-2.676,23.94-2.676l1.46,6.193s-10.114,4.911-20.993,6.686c-11.226,1.832-15.425-3.14-15.477-10.754-.048-6.977,2.838-23.942,2.838-23.942l11.627,3.855Z"
                  style="fill:#b97964;"></path>
            <path d="M139.183,230.89c-2.754,4.078-5.863,7.884-9.016,11.641-1.621,1.849-24.228,26.791-25.903,28.586l-2.493,2.723c-.877,1.085-2.28,1.694-3.796,1.649-1.671-.002-3.145-1.207-3.368-2.754-.252-1.396,.206-2.776,1.24-3.732l2.557-2.664c1.686-1.791,24.512-26.558,26.255-28.305,3.562-3.431,6.36-7.573,10.328-10.668,.876-.712,3.09,.179,3.924,1.042,.69,.713,.801,1.734,.272,2.482h0Z"
                  style="fill:#263238;"></path>
            <path d="M103.61,276.961l-35.516,4.993c-5.252,6.88-5.855,17.602-5.487,28.997,.964,17.827,5.121,44.258,5.529,50.27,.023,.002,.391-.002,.414,0-.027,4.601-2.897,20.105-2.901,27.012-.013,23.53,2.764,60.44,2.764,60.44l2.135,6.348,7.219-5.469s12.432-82.591,12.59-87.489c.017-.544,.039-1.099,.062-1.658l.489-8.557c.526-7.826,1.228-16.535,1.447-25.335l.815-14.267c10.356-3.731,15.134-16.37,16.879-19.041-3.013-9.975-3.826-11.933-6.439-16.242Z"
                  style="fill:#b97964;"></path>
            <path d="M118.774,350.839c-4.494-43.645-9.792-61.893-9.792-61.893l-32.798,9.411,20.482,63.497c-3.106,13.47-6.622,55.646-4.42,89.519l9.413-1.337,13.794-70.497c1.385-7.784,4.178-20.373,3.321-28.7Z"
                  style="fill:#b97964;"></path>
            <g>
                <path d="M78.913,448.344h-3.052c-.691,0-1.33,.349-1.738,.907-1.76,2.404-3.083,1.495-4.998-.765-1.217-.142-1.545,1.255-1.644,1.63l-2.282,8.301c-.198,.693,.203,1.416,.896,1.614,.123,.035,.251,.052,.379,.05h24.185c3.846,0,4.644-3.876,3.059-4.235-7.125-1.574-12.17-3.671-14.372-5.744-.408-.363,.011-.634-.433-1.758Z"
                      style="fill:#263238;"></path>
                <path d="M85.806,449.17c-.538-.381-1.982,.017-3.218,.475,.878-.723,1.639-1.587,1.564-2.159-.02-.209-.169-.458-.688-.528-1.995-.228-2.901,3.167-2.982,3.624-.92,.261-1.742,.842-2.254,1.655-.074,.116-.039,.271,.078,.345,.042,.025,.087,.038,.133,.038,.083,0,.164-.041,.211-.117,.529-.839,1.432-1.421,2.415-1.555,.032-.004,.051-.03,.077-.045,.766,.15,1.541,.252,2.321,.271,.723,.069,1.449-.095,2.073-.468,.321-.231,.513-.601,.518-.996,.027-.212-.07-.421-.249-.538Zm-2.551-1.913l.14,.01c.389,.04,.389,.179,.389,.229,.11,.608-1.634,2.172-2.88,2.83,.259-.877,1.026-3.069,2.352-3.069Zm2.033,3.159c-.856,.64-2.903,.376-4.039,.167,.053-.03,.108-.064,.163-.097,1.568-.673,3.649-1.38,4.155-1.027,.078,.048,.118,.14,.1,.229-.016,.286-.154,.551-.379,.727Zm-2.325,1.961c-.983,.134-1.886,.716-2.415,1.555-.047,.076-.128,.117-.211,.117-.046,0-.092-.013-.133-.038-.117-.074-.152-.229-.078-.345,.607-.964,1.643-1.631,2.771-1.785,.133-.015,.263,.077,.281,.214,.019,.137-.077,.264-.214,.282Zm2.574,.918c.019,.137-.077,.264-.214,.282-.982,.134-1.885,.715-2.415,1.556-.047,.075-.129,.116-.211,.116-.046,0-.092-.013-.133-.038-.117-.074-.152-.229-.078-.346,.607-.963,1.643-1.63,2.771-1.784,.131-.013,.262,.077,.281,.214Z"
                      style="fill:#407BFF;"></path>
                <polygon points="90.017 454.932 89.828 460.032 86.907 460.032 88.515 454.497 90.017 454.932"
                         style="opacity:.3;"></polygon>
            </g>
            <g>
                <path d="M102.132,448.53h-3.053c-.691,0-1.33,.349-1.738,.907-1.76,2.404-3.083,1.495-4.998-.765-1.217-.142-1.545,1.255-1.644,1.63l-2.282,8.301c-.198,.693,.203,1.416,.896,1.614,.123,.035,.251,.052,.379,.05h24.185c3.847,0,4.644-3.877,3.059-4.235-7.125-1.575-12.17-3.671-14.372-5.744-.408-.363,.011-.634-.433-1.758Z"
                      style="fill:#263238;"></path>
                <path d="M109.026,449.355c-.538-.381-1.982,.017-3.218,.475,.878-.723,1.639-1.587,1.564-2.159-.02-.209-.169-.458-.688-.528-1.995-.228-2.901,3.169-2.982,3.625-.92,.261-1.742,.841-2.254,1.654-.074,.116-.039,.271,.078,.345,.042,.025,.087,.038,.133,.038,.083,0,.164-.041,.211-.117,.529-.84,1.432-1.421,2.415-1.554,.033-.004,.052-.031,.079-.046,.766,.149,1.54,.252,2.32,.27,.723,.069,1.449-.095,2.073-.468,.321-.231,.513-.601,.518-.997,.027-.212-.07-.421-.249-.538Zm-2.551-1.913l.14,.01c.389,.04,.389,.179,.389,.229,.11,.608-1.634,2.172-2.88,2.83,.259-.877,1.026-3.069,2.352-3.069Zm2.033,3.159c-.856,.64-2.903,.376-4.039,.167,.053-.03,.108-.063,.163-.097,1.567-.673,3.649-1.38,4.155-1.027,.078,.048,.117,.14,.1,.229-.016,.286-.154,.551-.379,.727Zm-2.325,1.961c-.983,.134-1.886,.716-2.415,1.555-.047,.076-.128,.117-.211,.117-.046,0-.092-.013-.133-.038-.117-.074-.152-.229-.078-.345,.606-.964,1.642-1.631,2.77-1.785,.132-.014,.262,.077,.281,.214s-.077,.264-.214,.282Zm2.574,.918c.019,.137-.077,.264-.214,.282-.982,.134-1.885,.715-2.415,1.556-.047,.075-.129,.116-.211,.116-.046,0-.092-.013-.133-.038-.117-.074-.152-.229-.078-.346,.607-.963,1.643-1.63,2.77-1.784,.13-.011,.262,.077,.281,.214Z"
                      style="fill:#407BFF;"></path>
            </g>
            <polygon points="68.391 363.697 68.55 361.22 90.387 361.22 89.983 365.571 68.391 363.697"
                     style="isolation:isolate; opacity:.2;"></polygon>
            <polygon points="96.462 361.22 96.666 361.853 95.851 365.99 117.545 368.003 118.499 361.22 96.462 361.22"
                     style="isolation:isolate; opacity:.2;"></polygon>
            <path d="M66.72,278.863s-8.153,19.654-6.694,33.294c1.462,13.669,4.405,49.063,4.405,49.063h56.839s-1.345-20.592-2.987-30.994c-1.642-10.401-5.63-36.061-11.071-46.224-5.442-10.163-40.492-5.14-40.492-5.14Z"
                  style="fill:#407BFF;"></path>
            <path d="M90.688,343.044c-3.711-16.331-10.079-20.822-12.509-23.69l14.49,32.361-1.982-8.671Z"
                  style="isolation:isolate; opacity:.2;"></path>
            <path d="M102.049,248.473c.11-1.106,.205-2.192,.288-3.255l10.124-1.908s-1.721-7.305-6.124-15.665c-.873-1.658-2.337-2.936-4.096-3.582-.877-.322-1.648-.635-2.345-.929-1.411-.868-3.291-1.591-5.749-2.393-3.627-1.183-7.863-2.128-7.863-2.128l-11.022-.603s-13.545,3.141-18.721,7.448c-3.918,2.137-5.748,16.035-5.748,16.035l9.917,4.299c.926,3.004,3.948,14.641,4.204,15.7,1.463,6.046,1.622,7.482,1.918,10.935-.409,2.706-2.558,9.954-3.463,12.724,0,0,14.154,13.491,45.432,.455l-5.388-14.141c-.942-5.793-1.697-19.619-1.363-22.992Z"
                  style="fill:#407BFF;"></path>
            <path d="M102.049,248.473c.11-1.106,.205-2.192,.288-3.255l10.124-1.908s-1.721-7.305-6.124-15.665c-.873-1.658-2.337-2.936-4.096-3.582-.877-.322-1.648-.635-2.345-.929-1.411-.868-3.291-1.591-5.749-2.393-3.627-1.183-7.863-2.128-7.863-2.128l-11.022-.603s-13.545,3.141-18.721,7.448c-3.918,2.137-5.748,16.035-5.748,16.035l9.917,4.299c.926,3.004,3.948,14.641,4.204,15.7,1.463,6.046,1.622,7.482,1.918,10.935-.409,2.706-2.558,9.954-3.463,12.724,0,0,14.154,13.491,45.432,.455l-5.388-14.141c-.942-5.793-1.697-19.619-1.363-22.992Z"
                  style="opacity:.4;"></path>
            <path d="M110.929,243.599l4.987,12.509,8.626-11.364,6.752,2.822s-5.289,8.882-9.464,17.868c-4.446,9.568-10.447,7.904-14.074,1.21-3.324-6.135-8.863-20.774-8.863-20.774l12.037-2.269Z"
                  style="fill:#b97964;"></path>
            <path d="M136.027,238.799c-.046,1.176-3.818,7.121-3.818,7.121l-4.501,8.092-4.667-6.946,2.078-2.993c-.656-.992-1.502-4.587-1.009-5.739,.531-1.244,1.759-2.144,1.759-2.144l.591-.002s.033,2.425,1.6,2.52c1.475,.089,4.245-.362,4.991-.635,1.035-.38,2.977-2.588,2.977-2.588,0,0,.612,.449,.509,1.346s-.656,1.519-.656,1.519l.147,.45Z"
                  style="fill:#b97964;"></path>
            <path d="M184.271,221.694c-8.751,11.346-23.776,15.828-37.313,11.131-3.411-1.181-6.603-2.916-9.45-5.135-14.581-11.268-17.267-32.223-5.999-46.804,11.268-14.581,32.223-17.267,46.804-5.999,14.58,11.267,17.267,32.219,6.002,46.8l-.045,.007Z"
                  style="fill:#fff; isolation:isolate; opacity:.3;"></path>
            <path d="M188.537,188.919l-62.644,8.037c.056-.498,.105-.978,.18-1.471,.475-3.156,1.418-6.224,2.797-9.102h0l54.098-6.94c2.387,2.816,4.271,6.021,5.57,9.476Z"
                  style="fill:#fff; isolation:isolate; opacity:.4;"></path>
            <path d="M189.261,209.652l-58.893,7.539c-2.574-4.247-4.13-9.033-4.547-13.982l64.302-8.252c.843,4.899,.548,9.927-.862,14.694Z"
                  style="fill:#fff; isolation:isolate; opacity:.4;"></path>
            <path d="M181.017,170.79c-16.356-12.594-39.825-9.544-52.419,6.813-12.594,16.357-9.544,39.825,6.813,52.419,16.322,12.567,39.735,9.56,52.351-6.725,12.642-16.319,9.662-39.797-6.657-52.439l-.088-.068Zm-42.8,55.468c-14.228-10.988-16.854-31.43-5.865-45.658s31.43-16.854,45.658-5.865c14.201,10.968,16.848,31.36,5.917,45.59-10.969,14.243-31.407,16.896-45.649,5.927l-.047-.036-.013,.041Z"
                  style="fill:#263238;"></path>
            <path d="M57.545,229.814c.059,.187,2.178,12.6,6.481,13.733,2.051,.54,18.505,.243,18.505,.243l1.458-2.288,2.476,2.288h10.454l-5.974-10.405,.61-16.992-34.01,13.421Z"
                  style="opacity:.3;"></path>
            <path d="M89.667,199.529c3.694-7.029,1.599-19.739-6.562-22.121-7.337-2.142-18.971,.052-18.533,13.186,.439,13.134-2.628,11.76-5.942,20.194-3.479,8.855-2.46,20.512,3.425,30.053h16.251l2.966-4.27,3.513,4.27h14.108c-6.963-9.661-2.801-13.433-1.957-22.204,.844-8.771-10.444-13.066-7.269-19.109Z"
                  style="fill:#263238;"></path>
            <path d="M72.958,179.834c-.434-1.004-1.317-1.91-2.409-1.98-.561-.036-1.11,.15-1.641,.333l-.1,.694c-.427,1.087-1.303,1.925-1.96,2.891s-1.094,2.258-.535,3.284c.418,.767,1.304,1.182,2.173,1.274,1.578,.167,3.206-.63,4.09-1.948s1.013-3.092,.383-4.549Z"
                  style="fill:#407BFF;"></path>
            <path d="M71.057,184.736c.535-1.175,.903-3.851,.655-4.852-.367-1.477-1.402-2.709-2.589-3.66-.602-.483-1.259-.912-1.99-1.159-1.199-.405-2.515-.293-3.751-.018-1.401,.312-2.799,.854-3.817,1.866-1.382,1.374-1.872,3.573-1.203,5.404s2.46,3.197,4.402,3.357c-1.216,.352-2.373,.907-3.408,1.635-.091,.064-.189,.143-.2,.254-.01,.105,.063,.199,.137,.275,.639,.658,1.614,.9,2.53,.846s1.794-.366,2.658-.676c-.267,.888-.534,1.775-.8,2.663-.082,.274-.165,.565-.088,.84,.175,.622,1.006,.753,1.642,.64,1.947-.347,3.544-1.829,4.495-3.562,.656-1.197,1.04-2.513,1.329-3.853Z"
                  style="fill:#263238;"></path>
        </g>
    </g>
</svg>